<svg xmlns="http://www.w3.org/2000/svg" viewBox="0 0 157.6 149.5"><defs><style>.cls-1{fill:#ff8200;}</style></defs><g id="Layer_2" data-name="Layer 2"><g id="Layer_1-2" data-name="Layer 1"><g id="Group_96" data-name="Group 96"><g id="Group_92" data-name="Group 92"><rect class="cls-1" x="91" y="34.6" width="83" height="1.3" transform="translate(25.6 121.1) rotate(-53.7)"/><rect class="cls-1" x="44.1" y="33.9" width="83" height="1.3" transform="translate(7.1 83.1) rotate(-53.7)"/><rect class="cls-1" x="-2.7" y="33.2" width="83" height="1.3" transform="translate(-11.4 45) rotate(-53.7)"/><rect class="cls-1" x="90.5" y="64.8" width="83" height="1.3" transform="translate(1 133.1) rotate(-53.7)"/><rect class="cls-1" x="43.7" y="64.1" width="83" height="1.3" transform="translate(-17.5 95) rotate(-53.7)"/><rect class="cls-1" x="-3.2" y="63.4" width="83" height="1.3" transform="translate(-36 57) rotate(-53.7)"/><rect class="cls-1" x="77.3" y="115" width="83" height="1.3" transform="translate(-44.8 142.9) rotate(-53.7)"/><rect class="cls-1" x="30.5" y="114.3" width="83" height="1.3" transform="translate(-63.3 104.8) rotate(-53.7)"/><rect class="cls-1" x="-16.4" y="113.6" width="83" height="1.3" transform="translate(-81.8 66.8) rotate(-53.7)"/></g></g></g></g></svg>