<svg xmlns="http://www.w3.org/2000/svg" viewBox="0 0 436.1 149.5"><defs><style>.cls-1{fill:#ff8200;}</style></defs><g id="Layer_2" data-name="Layer 2"><g id="Layer_1-2" data-name="Layer 1"><g id="Group_96" data-name="Group 96"><g id="Group_92" data-name="Group 92"><rect class="cls-1" x="91" y="34.6" width="83" height="1.3" transform="translate(25.6 121.1) rotate(-53.7)"/><rect class="cls-1" x="44.1" y="33.9" width="83" height="1.3" transform="translate(7.1 83.1) rotate(-53.7)"/><rect class="cls-1" x="-2.7" y="33.2" width="83" height="1.3" transform="translate(-11.4 45) rotate(-53.7)"/><rect class="cls-1" x="90.5" y="64.8" width="83" height="1.3" transform="translate(1 133.1) rotate(-53.7)"/><rect class="cls-1" x="43.7" y="64.1" width="83" height="1.3" transform="translate(-17.5 95) rotate(-53.7)"/><rect class="cls-1" x="-3.2" y="63.4" width="83" height="1.3" transform="translate(-36 57) rotate(-53.7)"/><rect class="cls-1" x="77.3" y="115" width="83" height="1.3" transform="translate(-44.8 142.9) rotate(-53.7)"/><rect class="cls-1" x="30.5" y="114.3" width="83" height="1.3" transform="translate(-63.3 104.8) rotate(-53.7)"/><rect class="cls-1" x="-16.4" y="113.6" width="83" height="1.3" transform="translate(-81.8 66.8) rotate(-53.7)"/></g></g><g id="Group_96-2" data-name="Group 96"><g id="Group_92-2" data-name="Group 92"><rect class="cls-1" x="229" y="34.6" width="83" height="1.3" transform="translate(81.8 232.3) rotate(-53.7)"/><rect class="cls-1" x="182.1" y="33.9" width="83" height="1.3" transform="translate(63.3 194.2) rotate(-53.7)"/><rect class="cls-1" x="135.3" y="33.2" width="83" height="1.3" transform="translate(44.8 156.2) rotate(-53.7)"/><rect class="cls-1" x="228.5" y="64.8" width="83" height="1.3" transform="translate(57.3 244.2) rotate(-53.7)"/><rect class="cls-1" x="181.7" y="64.1" width="83" height="1.3" transform="translate(38.8 206.2) rotate(-53.7)"/><rect class="cls-1" x="134.8" y="63.4" width="83" height="1.3" transform="translate(20.2 168.1) rotate(-53.7)"/><rect class="cls-1" x="215.3" y="115" width="83" height="1.3" transform="translate(11.5 254) rotate(-53.7)"/><rect class="cls-1" x="168.5" y="114.3" width="83" height="1.3" transform="translate(-7 216) rotate(-53.7)"/><rect class="cls-1" x="121.6" y="113.6" width="83" height="1.3" transform="translate(-25.6 178) rotate(-53.7)"/></g></g><g id="Group_96-3" data-name="Group 96"><g id="Group_92-3" data-name="Group 92"><rect class="cls-1" x="369.4" y="34.7" width="83" height="1.3" transform="translate(138.3 344.9) rotate(-53.6)"/><rect class="cls-1" x="322.6" y="33.9" width="83" height="1.3" transform="translate(120 306.9) rotate(-53.6)"/><rect class="cls-1" x="275.7" y="33.1" width="83" height="1.3" transform="translate(101.6 268.9) rotate(-53.6)"/><rect class="cls-1" x="368.9" y="65" width="83" height="1.3" transform="translate(113.8 356.8) rotate(-53.6)"/><rect class="cls-1" x="322.1" y="64.1" width="83" height="1.3" transform="translate(95.5 318.8) rotate(-53.6)"/><rect class="cls-1" x="275.2" y="63.3" width="83" height="1.3" transform="translate(77.1 280.7) rotate(-53.6)"/><rect class="cls-1" x="355.6" y="115.1" width="83" height="1.3" transform="translate(68.1 366.4) rotate(-53.6)"/><rect class="cls-1" x="308.7" y="114.3" width="83" height="1.3" transform="translate(49.7 328.4) rotate(-53.6)"/><rect class="cls-1" x="261.9" y="113.4" width="83" height="1.3" transform="translate(31.4 290.4) rotate(-53.6)"/></g></g></g></g></svg>