<?xml version="1.0" encoding="UTF-8"?><svg id="Layer_2" xmlns="http://www.w3.org/2000/svg" viewBox="0 0 243.5 163"><defs><style>.cls-1{fill:#fafafa;}.cls-2{fill:#ff8200;}.cls-3{fill:#58595b;}</style></defs><g id="Layer_1-2"><g><path class="cls-3" d="M26,114.4c.4,.3,.7,1,.9,2.1,.1,.5,.3,.7,.5,.7,.3,0,.5-.3,.5-.7s-.1-.6-.1-1.1c-.1-.4-.1-1-.1-1.9s-.1-1.4-.3-1.6c-.2-.2-.7-.3-1.5-.3H1.9c-.5,0-.8,0-1,.3-.2,.2-.2,.7-.2,1.3s-.1,1.6-.3,2.6c-.2,.8-.3,1.4-.3,1.7s0,.6,.4,.6,.5-.3,.6-.8c.3-1.3,.7-2.3,1.3-2.7,.5-.5,1.4-.7,2.6-.7h5.9c.6,0,.9,0,1.1,.2,.2,0,.2,.5,.2,1v22.9c0,1.3-.2,2.1-.6,2.6-.4,.5-1.2,.8-2.3,.9-.5,.1-.7,.2-.7,.4,0,.3,.2,.5,.7,.5s.6,0,1.5-.1c.4,0,1-.1,1.6-.1h3.3c1.1,0,1.7,0,2,.1,.6,.1,.9,.1,1.1,.1,.4,0,.6-.2,.6-.5s-.3-.4-.8-.5c-1.9-.3-2.9-1.4-2.9-3.1v-22.8c0-.7,.1-1.1,.3-1.3,.2-.2,.6-.3,1.2-.3h6.3c1.2,.1,2,.2,2.5,.5h0Zm12.1-.8c.3-.2,.9-.3,1.8-.3h3.5c2.3,0,3.9,0,4.7,.3,.9,.2,1.4,.7,1.7,1.3,.2,.4,.3,.9,.3,1.4v.6c0,.5,0,.7,.4,.7s.4,0,.5-.3c0-.2,.2-.8,.2-1.6v-1.3c.2-1,.2-1.6,.3-1.8,0-.2,0-.4,0-.5,0-.4-.2-.6-.7-.6s-.5,0-.9,0c-.2,0-.7,0-1.6,0l-3.2,.2c-1.4,0-3,0-4.8,0-3,0-5.6,0-7.7-.4-.6,0-1.1,0-1.5,0-.7,0-1,.2-1,.6s.2,.4,.6,.4c1.4,0,2.3,.4,2.7,1.1,.5,.7,.7,2.2,.7,4.3v20.4c0,1.8-.5,2.8-1.6,3.1l-.8,.2c-.4,.1-.6,.3-.6,.5,0,.3,.2,.5,.7,.5s.6-.1,1.2-.2c1.1-.2,2.9-.3,5.5-.3s4.2,.1,7.1,.4c.7,.1,1.3,.1,1.7,.1,2,0,3.6-.8,5-2.4,1.1-1.3,1.6-2.5,1.6-3.4s0-.6-.4-.6-.3,.1-.5,.4c-1.7,2.6-5.4,4-11.3,4s-3-.2-3.4-.5c-.5-.3-.7-1.1-.7-2.4v-8.9c0-.4,0-.7,.4-.9,.2,0,.7-.2,1.5-.2h4.9c1.3,0,2.2,.2,2.7,.5,.5,.4,.9,1,1.1,2v.6c.2,.3,.4,.5,.7,.5s.4-.2,.4-.6v-.6c0-.9,0-1.8,0-2.7s0-2.5,.2-3.9v-.5c0-.4,0-.6-.4-.6s-.5,.2-.6,.5c-.2,1-.4,1.6-.6,1.9-.2,.3-.8,.5-1.6,.6-.9,.2-2.1,.3-3.7,.3h-3.6c-.6,0-1,0-1.1-.2s-.2-.6-.2-1.2v-9c0-1,0-1.5,.4-1.7h0Zm45.2,5.1v-2.4c0-1.4,0-2.4,.4-2.9s.9-.9,1.8-1.1c.3,0,.5-.2,.4-.4,0-.3-.2-.5-.6-.5s-.6,0-1.1,0c-.6,0-1.3,0-2.2,0-1.7,0-3.1,0-4.1-.2-.4,0-.7,0-.9,0-.4,0-.6,0-.6,.4s.2,.5,.6,.5c1.5,.3,2.6,.6,3.2,1.2,.6,.5,1,1.4,1.1,2.7l.3,5.1v14.1c0,.3,0,.4-.2,.4s-.3-.2-.6-.5l-20.5-23.3c-.4-.4-.7-.6-1.1-.6h-4c-.3,0-.5,0-.5,.4s.2,.4,.6,.5c1.5,.2,2.7,1.1,3.5,2.5,.8,1.5,1.2,3.5,1.2,6.1v15.2c0,1.6-.2,2.8-.7,3.5-.4,.7-1.3,1.3-2.5,1.7-.4,.1-.6,.3-.6,.5,0,.3,.2,.4,.6,.4s.4,0,.8-.1c.5-.1,1.1-.1,1.7-.1h3.4c1.1,.2,1.8,.2,1.9,.2h.7c.3,0,.5-.1,.5-.4s-.2-.5-.7-.6c-1.2-.2-2-.5-2.4-.8-.4-.4-.7-1.1-.8-2v-17.7c0-.7,0-1,.3-1s.2,0,.3,0l.2,.2,18.8,21.5,.5,.6c0,.1,.3,.2,.5,.2,.3,0,.6-.2,.6-.5,0-.4,0-1.4,0-3.1v-19.9h0Zm32.4,0v-2.4c0-1.4,0-2.4,.4-2.9s.9-.9,1.8-1.1c.3,0,.5-.2,.4-.4,0-.3-.2-.5-.6-.5s-.6,0-1.1,0c-.6,0-1.3,0-2.2,0-1.7,0-3.1,0-4.1-.2-.4,0-.7,0-.9,0-.4,0-.6,0-.6,.4s.2,.5,.6,.5c1.5,.3,2.6,.6,3.2,1.2,.6,.5,1,1.4,1.1,2.7l.3,5.1v14.1c0,.3,0,.4-.2,.4s-.3-.2-.6-.5l-20.5-23.3c-.4-.4-.7-.6-1.1-.6h-4c-.3,0-.5,0-.5,.4s.2,.4,.6,.5c1.5,.2,2.7,1.1,3.5,2.5,.8,1.5,1.2,3.5,1.2,6.1v15.2c0,1.6-.2,2.8-.7,3.5-.4,.7-1.3,1.3-2.5,1.7-.4,.1-.6,.3-.6,.5,0,.3,.2,.4,.6,.4s.4,0,.8-.1c.5-.1,1.1-.1,1.7-.1h3.4c1.1,.2,1.8,.2,1.9,.2h.7c.3,0,.5-.1,.5-.4s-.2-.5-.7-.6c-1.2-.2-2-.5-2.4-.8-.4-.4-.7-1.1-.8-2v-17.7c0-.7,0-1,.3-1s.2,0,.3,0l.2,.2,18.8,21.5,.5,.6c0,.1,.3,.2,.5,.2,.3,0,.5-.2,.6-.5,0-.4,0-1.4,0-3.1v-19.9h0Zm12.2-5.1c.3-.2,.9-.3,1.8-.3h3.5c2.3,0,3.9,0,4.7,.3,.9,.2,1.4,.7,1.7,1.3,.2,.4,.3,.9,.3,1.4v.6c0,.5,.1,.7,.4,.7s.4,0,.5-.3c.1-.2,.2-.8,.2-1.6v-1.3c.2-1,.2-1.6,.3-1.8,0-.2,.1-.4,.1-.5,0-.4-.2-.6-.7-.6s-.5,0-.9,0c-.2,0-.7,0-1.6,0l-3.2,.2c-1.4,0-3,0-4.8,0-3,0-5.6,0-7.7-.4-.6,0-1.1,0-1.5,0-.7,0-1,.2-1,.6s.2,.4,.6,.4c1.4,0,2.3,.4,2.7,1.1,.5,.7,.7,2.2,.7,4.3v20.4c0,1.8-.5,2.8-1.6,3.1l-.8,.2c-.4,.1-.6,.3-.6,.5,0,.3,.2,.5,.7,.5s.6-.1,1.2-.2c1.1-.2,2.9-.3,5.5-.3s4.2,.1,7.1,.4c.7,.1,1.3,.1,1.7,.1,2,0,3.6-.8,5-2.4,1.1-1.3,1.6-2.5,1.6-3.4s-.1-.6-.4-.6-.3,.1-.5,.4c-1.7,2.6-5.4,4-11.3,4s-3-.2-3.4-.5c-.5-.3-.7-1.1-.7-2.4v-8.9c0-.4,0-.7,.4-.9,.2,0,.7-.2,1.5-.2h4.9c1.3,0,2.2,.2,2.7,.5,.5,.4,.9,1,1.1,2v.6c.2,.3,.4,.5,.7,.5s.4-.2,.4-.6v-.6c-.1-.9-.1-1.8-.1-2.7s.1-2.5,.2-3.9v-.5c0-.4-.1-.6-.4-.6s-.5,.2-.6,.5c-.2,1-.4,1.6-.6,1.9-.2,.3-.8,.5-1.6,.6-.9,.2-2.1,.3-3.7,.3h-3.4c-.6,0-1,0-1.1-.2s-.2-.6-.2-1.2v-9c-.2-1,0-1.5,.2-1.7h0Zm23-.3c-1.8,1.5-2.7,3.5-2.7,5.9s.7,3.9,2.1,5.3c1.4,1.4,3.7,2.6,7,3.7,3.2,1.1,5.1,1.9,5.8,2.5,1.3,1.1,2,2.5,2,4.2s-.7,3.2-2.1,4.4c-1.4,1.2-3.1,1.8-5.2,1.8s-3.9-.6-5.6-1.9c-1.7-1.3-2.9-2.8-3.4-4.7-.2-.7-.5-1.1-.7-1.1-.3,0-.5,.2-.5,.6,0,.6,.2,1.5,.6,2.9,.3,1.2,.5,1.9,.6,2,.2,.8,.3,1.4,.4,1.6,.1,.2,.3,.4,.5,.6,.6,.4,1.6,.8,3,1.1s2.6,.5,3.8,.5c3.2,0,5.8-.9,7.8-2.7s3-4,3-6.8c0-4.1-2.7-7.1-8.2-8.9-2.8-.9-4.6-1.6-5.3-1.9-.7-.4-1.4-.9-2-1.7-.7-.9-1-2-1-3.2s.5-2.6,1.6-3.5,2.4-1.4,4-1.4,3.8,.5,5.5,1.6c1.6,1,2.7,2.4,3.3,4,.2,.7,.5,1.1,.7,1.1,.3,0,.5-.2,.5-.7s0-.4-.1-.9l-.4-2.3c-.2-1.3-.3-2-.3-2.3,0-.7-.2-1.1-.6-1.1s-.2,0-.2,0l-.3,.3c-.2,0-.4,.2-.5,.2s-.3,0-.4,0l-1.5-.6c-1.1-.5-2.4-.7-4-.7-3.1-.2-5.5,.6-7.2,2.1h0Zm24,0c-1.8,1.5-2.7,3.5-2.7,5.9s.7,3.9,2.1,5.3c1.4,1.4,3.7,2.6,7,3.7,3.2,1.1,5.1,1.9,5.8,2.5,1.3,1.1,2,2.5,2,4.2s-.7,3.2-2.1,4.4c-1.4,1.2-3.2,1.8-5.2,1.8s-3.9-.6-5.6-1.9c-1.7-1.3-2.9-2.8-3.4-4.7-.2-.7-.5-1.1-.7-1.1-.3,0-.5,.2-.5,.6,0,.6,.2,1.5,.6,2.9,.3,1.2,.5,1.9,.6,2,.2,.8,.3,1.4,.4,1.6,.1,.2,.3,.4,.5,.6,.6,.4,1.6,.8,3,1.1s2.6,.5,3.8,.5c3.2,0,5.8-.9,7.8-2.7s3-4,3-6.8c0-4.1-2.8-7.1-8.2-8.9-2.8-.9-4.6-1.6-5.3-1.9-.7-.4-1.4-.9-2-1.7-.7-.9-1-2-1-3.2s.5-2.6,1.6-3.5,2.4-1.4,4-1.4,3.8,.5,5.5,1.6c1.6,1,2.7,2.4,3.3,4,.2,.7,.5,1.1,.7,1.1,.3,0,.5-.2,.5-.7s0-.4-.1-.9l-.4-2.3c-.2-1.3-.3-2-.3-2.3,0-.7-.2-1.1-.6-1.1s-.2,0-.2,0l-.3,.3c-.2,0-.4,.2-.5,.2s-.3,0-.4,0l-1.5-.6c-1.1-.5-2.4-.7-4-.7-3.1-.2-5.4,.6-7.2,2.1h0Zm27.1,.3c.3-.2,.9-.3,1.8-.3h3.5c2.3,0,3.9,0,4.7,.3,.9,.2,1.4,.7,1.7,1.3,.2,.4,.3,.9,.3,1.4v.6c0,.5,.1,.7,.4,.7s.4,0,.5-.3c.1-.2,.2-.8,.2-1.6v-1.3c.2-1,.2-1.6,.3-1.8,0-.2,.1-.4,.1-.5,0-.4-.2-.6-.7-.6s-.5,0-.9,0c-.2,0-.7,0-1.6,0l-3.2,.2c-1.4,0-3,0-4.8,0-3,0-5.6,0-7.7-.4-.6,0-1.1,0-1.5,0-.7,0-1,.2-1,.6s.2,.4,.6,.4c1.4,0,2.3,.4,2.7,1.1,.5,.7,.7,2.2,.7,4.3v20.4c0,1.8-.5,2.8-1.6,3.1l-.8,.2c-.4,.1-.6,.3-.6,.5,0,.3,.2,.5,.7,.5s.6-.1,1.2-.2c1.1-.2,2.9-.3,5.5-.3s4.2,.1,7.1,.4c.7,.1,1.3,.1,1.7,.1,2,0,3.6-.8,5-2.4,1.1-1.3,1.6-2.5,1.6-3.4s-.1-.6-.4-.6-.3,.1-.5,.4c-1.7,2.6-5.4,4-11.3,4s-3-.2-3.4-.5c-.5-.3-.7-1.1-.7-2.4v-8.9c0-.4,.1-.7,.4-.9,.2,0,.7-.2,1.5-.2h4.9c1.3,0,2.2,.2,2.7,.5,.5,.4,.9,1,1.1,2v.6c.2,.3,.4,.5,.7,.5s.4-.2,.4-.6v-.6c-.1-.9-.1-1.8-.1-2.7s.1-2.5,.2-3.9v-.5c0-.4-.1-.6-.4-.6s-.5,.2-.6,.5c-.2,1-.4,1.6-.6,1.9-.2,.3-.8,.5-1.6,.6-.9,.2-2.1,.3-3.7,.3h-3.5c-.6,0-1,0-1.1-.2s-.2-.6-.2-1.2v-9c0-1,.1-1.5,.3-1.7h0Zm25.6,0c.3-.2,.9-.3,1.8-.3h3.5c2.3,0,3.9,0,4.7,.3,.9,.2,1.4,.7,1.7,1.3,.2,.4,.3,.9,.3,1.4v.6c0,.5,.1,.7,.4,.7s.4,0,.5-.3c.1-.2,.2-.8,.2-1.6v-1.3c.2-1,.2-1.6,.3-1.8,0-.2,.1-.4,.1-.5,0-.4-.2-.6-.7-.6s-.5,0-.9,0c-.2,0-.7,0-1.6,0l-3.2,.2c-1.4,0-3,0-4.8,0-3,0-5.6,0-7.7-.4-.6,0-1.1,0-1.5,0-.7,0-1,.2-1,.6s.2,.4,.6,.4c1.4,0,2.3,.4,2.7,1.1,.5,.7,.7,2.2,.7,4.3v20.4c0,1.8-.5,2.8-1.6,3.1l-.8,.2c-.4,.1-.6,.3-.6,.5,0,.3,.2,.5,.7,.5s.6-.1,1.2-.2c1.1-.2,2.9-.3,5.5-.3s4.2,.1,7.1,.4c.7,.1,1.3,.1,1.7,.1,2,0,3.6-.8,5-2.4,1.1-1.3,1.6-2.5,1.6-3.4s-.1-.6-.4-.6-.3,.1-.5,.4c-1.7,2.6-5.4,4-11.3,4s-3-.2-3.4-.5c-.5-.3-.7-1.1-.7-2.4v-8.9c0-.4,.1-.7,.4-.9,.2,0,.7-.2,1.5-.2h4.9c1.3,0,2.2,.2,2.7,.5,.5,.4,.9,1,1.1,2v.6c.2,.3,.4,.5,.7,.5s.4-.2,.4-.6v-.6c-.1-.9-.1-1.8-.1-2.7s.1-2.5,.2-3.9v-.5c0-.4-.1-.6-.4-.6s-.5,.2-.6,.5c-.2,1-.4,1.6-.6,1.9-.2,.3-.8,.5-1.6,.6-.9,.2-2.1,.3-3.7,.3h-3.4c-.6,0-1,0-1.2-.2-.1,0-.2-.6-.2-1.2v-9c-.1-1,0-1.5,.3-1.7h0Z"/><path class="cls-3" d="M7.9,93c.2-.2,.9-.2,1.8-.2s1.3,0,1.7,.4,.6,.7,.8,1.3c.1,.2,.2,.4,.3,.4,.2,0,.3,0,.3-.3s0-.5-.1-.8c-.1-.4-.1-.7-.1-.8v-.7c0-.3-.2-.4-.6-.4h-.7c-1.7,0-3.3,0-4.8,0H.7c-.2,0-.4,0-.4,.4v.6l-.2,.9v1.3c0,.2,0,.3,.2,.3s.3,0,.3-.4v-.3c.3-.7,.4-1.2,.6-1.3,.1-.2,.3-.3,.7-.5,.5-.2,1.4-.3,2.7-.3s.8,.3,.8,.8v9.1c0,.6,0,1-.4,1.4-.3,.3-.7,.5-1.2,.5s-.3,0-.4,0c0,0,0,0,0,.3s0,.3,.3,.3h6.1c.2,0,.3,0,.3-.2,0-.2-.1-.3-.3-.3-.8,0-1.4-.3-1.7-.8s-.5-1.2-.5-2.3v-7.3c0-.8,.2-1.2,.4-1.3h0Zm19,5.6c.1,0,.1,.5,.1,1.1v2.6c0,.7-.1,1.2-.3,1.5-.2,.3-.5,.5-.9,.6-.2,0-.2,0-.2,.2,0,.2,.1,.3,.3,.3s.4,0,.7,0c.7,0,1.2,0,1.6,0,.6,0,1.3,0,2.1,0,.3,0,.6,0,.7,0,.3,0,.5,0,.5-.3s-.1-.3-.4-.3c-.7,0-1.1-.2-1.4-.6s-.4-1.1-.4-2v-8.3c0-.8,.4-1.3,1.1-1.4,.2,0,.3,0,.3-.3s-.1-.3-.3-.3-.6,0-1.1,0c-.8,0-1.3,0-1.5,0-.7,0-1.3,0-1.9,0-.3,0-.5,0-.6,0-.2,0-.3,0-.3,.3s.1,.3,.3,.3h.4c.9,.3,1.4,.8,1.4,1.6v2.1c0,.7,0,1.2-.1,1.3-.1,.2-.3,.2-.7,.2h-4.5c-.5,0-.8,0-.9-.2s-.1-.5-.1-1.2v-2.5c0-.8,.4-1.3,1.1-1.4,.2,0,.3,0,.3-.3s-.1-.3-.3-.3-.6,0-1.1,0c-.8,0-1.3,0-1.5,0-.7,0-1.3,0-1.8,0-.3,0-.5,0-.6,0-.2,0-.3,0-.3,.3s.1,.2,.3,.3c.7,0,1.2,.3,1.4,.5,.3,.2,.4,.6,.4,1v8.6c0,.7-.1,1.2-.3,1.5-.2,.3-.5,.5-.9,.6-.2,0-.2,0-.2,.2,0,.2,.1,.3,.3,.3s.4,0,.7,0c.7,0,1.2,0,1.6,0,.6,0,1.3,0,2.1,0,.3,0,.6,0,.7,0,.3,0,.5,0,.5-.3s-.1-.3-.3-.3c-.7,0-1.2-.2-1.5-.6s-.4-1.1-.4-2v-2.4c0-.5,.1-.8,.2-.9s.4-.2,.9-.2h4.6c-.1,.5,.2,.6,.2,.7h0Zm12.3-5c0-.6,.2-.9,.5-1h1.9c1,0,1.8,0,2.3,.3s.7,.8,.7,1.4,0,.4,.2,.4c.3,0,.4-.3,.4-.8s0-.7,0-1.2c0-.4,0-.6,0-.8s0-.3-.3-.3h0c-.5,0-1.8,0-3.9,0h-5.5c-.2,0-.3,0-.3,.2,0,.2,0,.3,.3,.3,.7,0,1.2,.3,1.5,.5,.2,.3,.4,.8,.4,1.5v7.7c0,.6,0,1.1,0,1.4,0,.4-.2,.7-.3,.8,0,.2-.4,.3-.8,.5,0,0-.2,0-.2,.3s0,.2,.3,.2h.6c1,0,1.7,0,2.2,0s1.3,0,1.7,0h1.1c.5,.2,1,.2,1.4,.2,.7,0,1.3,0,1.7-.3,.4-.2,.8-.6,1.1-1.1,.3-.6,.5-1.2,.5-1.9s0-.2,0-.2q0,0-.2,0s0,0,0,0c-.8,1.6-2.5,2.4-5.2,2.4s-.5,0-.7-.2c0,0-.3-.3-.4-.6,0-.4-.2-1.1-.2-2v-.9c0-.7,0-1.2,0-1.5,0-.3,0-.5,.2-.6,0,0,.3,0,.6,0h.7c.7,0,1.1,0,1.4,0,.2,0,.4,0,.6,.3,.3,.3,.5,.7,.6,1.3,0,.3,0,.4,.3,.4s0,0,.2,0v-.7c0-.4,0-.8,0-1.3,0-.8,0-1.3,0-1.5v-.8c0-.2,0-.3-.2-.3s-.2,0-.3,.2l-.4,.5c-.3,.7-.8,1.1-1.5,1.1h-1.5c-.3,0-.5,0-.6-.2,0-.2,0-.5,0-1.1v-2.6h-.1Zm28.4-1.7c0,.2,0,.3,.4,.3,.6,0,1,.2,1.4,.5,.3,.3,.5,.8,.6,1.4v2.8c0,1.8,0,3.2-.3,4.1-.2,1-.6,1.7-1.1,2.2-.8,.7-1.8,1.1-3,1.1s-2.2-.4-3-1.1c-.5-.5-.9-1-1-1.7s-.2-1.8-.2-3.3v-1.7l.2-2.4c0-.6,0-1.1,.3-1.3,0-.2,.4-.4,.8-.4s.3,0,.4,0,0,0,0-.2c0-.2-.2-.3-.5-.3h-.7c-.8,0-1.5,0-2.1,0s-1.1,0-1.9,0h-.4c-.2,0-.3,0-.3,.3s0,.3,.4,.3c.4,0,.8,.2,1.1,.3,.3,0,.5,.3,.5,.5,0,.2,0,.5,0,.9v1.8l-.4,3.5c0,2.4,.6,4.1,1.9,4.9,.9,.6,2.2,.9,3.8,.9,2.3,0,4-.8,5-2.3,.4-.6,.7-1.5,.9-2.7,.2-1.1,.3-2.7,.3-4.5v-2c0-1,.3-1.5,.8-1.6h.4c.2,0,.2-.2,.2-.3,0-.2,0-.3-.3-.3h-.3c-.2,0-.5,0-.9,0h-2c-.4,0-.7,0-.8,0h-.2q-.2,.2-.2,.4h0Zm13.7,1.5l-.7-.8c-.4-.4-.6-.7-.7-.8,0,0-.3,0-.5,0h-.5c-.6,0-1.1,0-1.6,0h-1.1c-.2,0-.3,0-.3,.3s0,.2,.3,.2c1.5,0,2.2,1.2,2.2,3.1v6.5c0,.8-.2,1.4-.4,1.8-.2,.4-.6,.7-1,.8-.2,0-.3,0-.3,.3s0,.2,.3,.2,.3,0,.5,0c.5,0,1.1,0,1.8,0s1.3,0,1.8,0h.4c.2,0,.3,0,.3-.3s0-.2-.3-.2c-1,0-1.7-.5-1.9-1.2-.2-.7-.3-2-.3-4v-4.1c0-.3,0-.4,.2-.4s.2,0,.3,.3l8.8,9.8c0,0,.2,.2,.4,.2s.2,0,.2-.3v-10.4c0-1.3,.5-2.1,1.4-2.2,.2,0,.3,0,.3-.3s0-.3-.3-.3h-.3c-1,0-1.7,.2-2.1,.2s-.5,0-.8,0c-.5,0-.9,0-1.1,0s-.3,0-.3,.3,0,.2,.3,.2c.9,0,1.5,.4,1.8,.9s.5,1.6,.5,3.1,0,2.7,0,4.1c0,.4,0,.6-.2,.6s-.4-.2-.9-.7l-.3-.4-5.3-5.6c-.1,0-.2-.3-.5-.6h0Zm17.6,.4c0-.6,0-.9,.2-1.1s.4-.3,.9-.4c0,0,.2,0,.2,0v-.2c0-.2,0-.2-.3-.2-.4,0-.9,0-1.5,0h-.7c-.5,0-1,.2-1.4,.2-.6,0-.9,0-1.2,0-.2,0-.4,0-.5,0-.2,0-.2,0-.2,.3s0,.2,0,.3c0,0,.3,0,.6,.2,.6,0,.9,.3,1.1,.5,.2,.3,.3,.7,.3,1.3v8.6c0,.6,0,1-.2,1.2-.2,.2-.5,.4-.9,.6l-.3,.2h0c0,.2,0,.3,.3,.3s.4,0,.7,0c.4,0,.9,0,1.5,0s1.2,0,2.1,0c.3,0,.6,0,.8,0,.4,0,.6,0,.6-.3s-.2-.3-.5-.3c-.5,0-.9,0-1.2-.4-.3-.3-.5-.6-.6-1.1v-9.5h0Zm9.6-.7c0-.5,.2-.8,.7-.8,.3,0,.4-.2,.4-.3,0-.2,0-.3-.3-.3h-3.4c-.4,0-.8,0-1.2,0h-.3c-.2,0-.3,0-.3,.3s0,.3,.4,.3c.5,0,.8,.3,1.1,.7,.3,.4,.6,1.2,1.1,2.4,.4,1,.8,2.2,1.4,3.4l2.3,5.2,.2,.6,.2,.5c0,.2,.2,.2,.3,.2,.2,0,.3,0,.5-.4,0,0,.2-.5,.6-1.2,0,0,.3-.7,.9-1.9l1.7-3.7,1.4-3.3c.4-1,.8-1.6,1-2s.5-.5,.9-.6c.2,0,.3,0,.3-.3s0-.2-.2-.2h-.4c-.4,0-.9,0-1.5,0h-2.5c-.2,0-.2,0-.2,0s0,.2,.3,.3c.5,0,.9,.2,1.2,.5,.3,.3,.4,.6,.4,1,0,.7-.4,1.9-1.1,3.4l-2.2,4.9c0,.2-.2,.3-.2,.3,0,0-.2,0-.3-.4l-2.2-5.3c-.6-1.7-1-2.8-1-3.4h0Zm17.7,.5c0-.6,.2-.9,.5-1h1.9c1,0,1.8,0,2.3,.3s.7,.8,.7,1.4,.1,.4,.2,.4c.3,0,.4-.3,.4-.8s0-.7-.1-1.2c0-.4-.1-.6-.1-.8s-.1-.3-.3-.3h-.1c-.5,0-1.8,0-3.9,0h-5.5c-.2,0-.3,0-.3,.2,0,.2,0,.3,.3,.3,.7,0,1.2,.3,1.5,.5,.2,.3,.4,.8,.4,1.5v7.7c0,.6,0,1.1,0,1.4,0,.4-.2,.7-.3,.8,0,.2-.4,.3-.8,.5,0,0-.2,0-.2,.3s0,.2,.3,.2h.6c1,0,1.7,0,2.2,0s1.3,0,1.7,0h1.1c.5,.2,1,.2,1.4,.2,.7,0,1.3,0,1.7-.3,.4-.2,.8-.6,1.1-1.1,.3-.6,.5-1.2,.5-1.9s0-.2-.1-.2q-.1,0-.2,0s-.1,0-.1,0c-.8,1.6-2.5,2.4-5.2,2.4s-.5,0-.7-.2c0,0-.3-.3-.4-.6,0-.4-.2-1.1-.2-2v-.9c0-.7,0-1.2,0-1.5,0-.3,0-.5,.2-.6s.3,0,.6,0h.7c.7,0,1.1,0,1.4,0,.2,0,.4,0,.6,.3,.3,.3,.5,.7,.6,1.3,0,.3,.1,.4,.3,.4s.1,0,.2,0v-.7c0-.4,0-.8-.1-1.3-.1-.8-.1-1.3-.1-1.5v-.8c0-.2-.1-.3-.2-.3s-.2,0-.3,.2l-.2,.5c-.4,.7-.8,1.1-1.5,1.1h-1.5c-.3,0-.5,0-.6-.2,0-.2,0-.5,0-1.1v-2.2l-.3-.4h0Zm14.4,5.7c0-.3,0-.4,.1-.5h1c.5,0,.9,0,1.1,.2,.2,.2,.5,.6,.9,1.4,.9,1.8,1.6,3.1,2.2,3.7,.6,.7,1.2,1,1.8,1s.9,0,1.4-.4c.5-.2,.8-.5,.8-.6s-.1-.2-.2-.2h-.6c-.4,0-.7,0-.9-.3-.3-.2-.6-.7-.9-1.3l-1-1.8-.9-1.5c-.1-.2-.2-.4-.3-.5s-.1-.2-.1-.2c0,0,.1,0,.2-.2,.6-.3,1.1-.7,1.5-1.2s.5-1.1,.5-1.8c0-1-.4-1.9-1.2-2.5-.8-.7-1.8-1-3.1-1s-1.2,0-2.3,0c-.9,0-1.7,0-2.4,0s-1.1,0-1.6,0h-.3c-.2,0-.3,0-.3,.3s.1,.3,.4,.3c.7,0,1.2,.4,1.6,.8,.2,.3,.3,.8,.3,1.6v8.3c0,.5-.1,.8-.3,1.1-.2,.2-.5,.4-.9,.5-.1,0-.2,0-.2,.3s.1,.3,.3,.3h1.1l.8-.2h1.2c.5,0,1.1,0,1.6,0h.4c.2,0,.3,0,.3-.3s-.1-.3-.4-.3c-.7,0-1.1-.3-1.3-.8-.2-.4-.3-1.3-.3-2.5v-1.9h0Zm.3-6.6c.2-.2,.5-.3,.9-.3,1,0,1.8,.3,2.4,1,.6,.6,1,1.4,1,2.4s-.2,1.3-.7,1.8-.5,.4-.8,.4-1,0-2.1,0-.7,0-.8-.2-.2-.4-.2-.8v-3.4c0-.5,.1-.9,.3-1h0Zm13.7,0c-.7,.7-1,1.6-1,2.7s.3,1.7,.7,2.2c.5,.6,1.4,1.1,2.8,1.8l1.5,.7c.7,.3,1.1,.6,1.4,.9,.3,.3,.4,.8,.4,1.3s-.3,1.2-.8,1.7-1.1,.8-1.8,.8-1.7-.4-2.4-1.1-1.3-1.7-1.7-2.8c0-.2-.1-.2-.2-.2-.2,0-.3,.2-.3,.5s.1,.8,.4,1.7c.2,.6,.3,1,.3,1.3s.1,.4,.1,.5,.2,0,.5,.2c.2,0,.5,0,1,.3,1,.3,1.7,.5,2.1,.5,1.1,0,2.1-.4,2.9-1.3,.8-.8,1.2-1.8,1.2-2.9s-.3-1.9-.9-2.6c-.5-.6-1.5-1.2-3.1-1.8-1.3-.5-2.1-.9-2.3-1.1-.4-.4-.6-.8-.6-1.3s.2-1,.7-1.4c.4-.4,.9-.6,1.5-.6,.9,0,1.7,.3,2.4,1,.8,.7,1.2,1.4,1.4,2.3,.1,.2,.1,.4,.3,.4s.2,0,.2-.4v-1.1l-.2-1v-1.2c0-.2-.1-.3-.2-.3h-.2l-.4,.2c-.1,0-.2,0-.3,0s-.3,0-.6-.2l-.7-.3c-.6-.2-1.2-.3-1.8-.3-.7-.3-1.6,.1-2.3,.8h0Zm15.3,1.2c0-.6,.1-.9,.2-1.1,.1-.2,.4-.3,.9-.4,.1,0,.2,0,.2,0v-.2c0-.2-.1-.2-.3-.2-.4,0-.9,0-1.5,0h-.7c-.5,0-1,.2-1.4,.2-.6,0-.9,0-1.2,0-.2,0-.4,0-.5,0-.2,0-.2,0-.2,.3s0,.2,.1,.3c.1,0,.3,0,.6,.2,.6,0,.9,.3,1.1,.5,.2,.3,.3,.7,.3,1.3v8.6c0,.6-.1,1-.2,1.2-.2,.2-.5,.4-.9,.6l-.3,.2h0c0,.2,.1,.3,.3,.3s.4,0,.7,0c.4,0,.9,0,1.5,0s1.2,0,2.1,0c.3,0,.6,0,.8,0,.4,0,.6,0,.6-.3s-.2-.3-.5-.3c-.5,0-.9,0-1.2-.4s-.5-.6-.6-1.1v-9.5h0Zm13.1-.8c.2-.2,.9-.2,1.8-.2s1.3,0,1.7,.4,.6,.7,.8,1.3c.1,.2,.2,.4,.3,.4,.2,0,.3,0,.3-.3s0-.5-.1-.8c-.1-.4-.1-.7-.1-.8v-.7c0-.3-.2-.4-.6-.4h-.7c-1.7,0-3.3,0-4.8,0h-5.8c-.2,0-.4,0-.4,.4v.6l-.2,.9v.8c-.2,.3-.2,.6-.2,.8s.1,.3,.3,.3,.3,0,.3-.4v-.3c.3-.7,.4-1.2,.6-1.3,.1-.2,.3-.3,.7-.5,.5-.2,1.4-.3,2.7-.3s.8,.3,.8,.8v9.1c0,.6-.1,1-.4,1.4-.3,.3-.7,.5-1.2,.5s-.3,0-.4,0c-.1,0-.1,0-.1,.3s.1,.3,.3,.3h6.1c.2,0,.3,0,.3-.2,0-.2-.1-.3-.4-.3-.8,0-1.4-.3-1.7-.8s-.5-1.2-.5-2.3v-7.3c.2-1.1,.3-1.5,.6-1.6h0Zm15.7,6.2c0,0,.1-.3,.2-.5,.7-1.1,1.4-2.4,2.3-4,.5-.9,.8-1.5,1.1-1.8s.7-.5,1.2-.7c.2,0,.4,0,.4-.3s-.1-.2-.3-.2h-4.4c-.2,0-.3,0-.3,.2s.1,.2,.3,.2c.4,0,.8,.2,1.1,.4,.3,.2,.5,.5,.5,.8s-.4,1.1-1.1,2.4c-.3,.6-.6,1-.6,1.2-.3,.7-.6,1-.8,1s-.4-.2-.6-.7c-.1-.2-.3-.5-.6-1.1l-.8-1.5c-.5-.9-.7-1.5-.7-1.8s.2-.6,.7-.7c.2,0,.3,0,.3-.3s-.1-.2-.4-.2-.4,0-.8,0c-.5,0-1.1,0-1.6,0s-1.2,0-1.9,0c-.3,0-.6,0-.8,0s-.3,0-.3,.3,.1,.3,.4,.3c.8,0,1.5,.7,2.1,1.8l1.5,2.8c.4,.8,.8,1.4,1.1,2,.3,.5,.4,.9,.4,1.3v1.9c0,.9-.1,1.5-.4,1.8s-.7,.6-1.5,.7c-.2,0-.3,0-.3,.2,0,.2,.1,.3,.2,.3s.3,0,.6,0c.4,0,1.2,0,2.4,0h3c.3,0,.4,0,.4-.2s-.1-.3-.3-.3c-1.2,0-1.8-.5-1.9-1.2v-3.6c.1,0,.2-.2,.2-.3h0Zm20.3-7.1c-1,.4-1.8,.9-2.4,1.6-.5,.6-1,1.3-1.3,2.2-.3,.9-.5,1.7-.5,2.6,0,2.1,.6,3.7,1.9,4.9,1.3,1.2,2.9,1.8,5,1.8s3.9-.7,5.2-2.1,1.9-3.2,1.9-5.3-.6-3.5-1.9-4.6c-1.2-1.2-2.9-1.8-4.9-1.8-1,.1-2,.3-3,.7h0Zm5.6,1.4c.6,.6,1.1,1.3,1.5,2.3s.6,2,.6,3c0,1.8-.4,3.2-1.2,4.2-.8,1.1-1.9,1.6-3.2,1.6s-2.7-.6-3.6-1.9c-.9-1.3-1.4-2.9-1.4-5s.4-3.1,1.1-4c.7-1,1.7-1.4,3.1-1.4,1.1,0,2.2,.3,3.1,1.2h0Zm11.9,0c0-.3,.1-.6,.2-.7,.1,0,.4-.2,.8-.2h1.7c1.4,0,2.3,.4,2.6,1.3v.6c0,.2,.1,.3,.2,.3,.2,0,.4-.3,.4-.8v-1.1c-.1,0-.1-.3-.2-.7,0-.3-.1-.5-.3-.5h-.7c-.9,0-1.8,0-2.7,0h-6c-.2,0-.3,0-.3,.3s.1,.2,.3,.2c.6,0,1.1,.2,1.4,.5,.3,.2,.4,.8,.4,1.6v8c0,.8-.1,1.3-.2,1.6-.1,.3-.4,.5-.8,.7-.2,0-.3,.2-.3,.3,0,.2,.1,.3,.3,.3s.5,0,1,0c.3,0,.8,0,1.3,0h3.1c.1,0,.2,0,.2-.3s-.1-.2-.3-.3c-.7,0-1.2-.2-1.5-.6s-.5-1.1-.5-2.1v-1.9c0-.8,.1-1.3,.2-1.4,.1,0,.7-.2,1.7-.2s1.3,0,1.6,.3c.3,.2,.5,.7,.7,1.4,0,.2,.1,.3,.2,.3,.2,0,.3,0,.3-.2v-2.2c-.1-.5-.2-.9-.2-1.3v-.6c0-.2-.1-.3-.3-.3s-.2,0-.2,.2c-.2,.6-.5,1-.7,1.2s-.6,.3-1.1,.3h-1.5c-.3,0-.5,0-.5-.2-.1,0-.1-.4-.1-.7v-3h-.2Z"/><path class="cls-3" d="M64.8,152c0-.7,0-1.2,.2-1.5,0-.2,.5-.4,1-.6,.2,0,.2-.1,.2-.2,0-.2,0-.3-.3-.3h-.4c-.6,.1-1.3,.1-2,.1s-1.7,0-2.3-.1h-.5c-.2,0-.3,.1-.3,.2s0,.2,0,.3c0,0,0,.1,.3,.1,.5,.1,.9,.2,1.2,.3,.3,.2,.4,.4,.5,.8v8.8c0,.8,0,1.4-.2,1.7s-.5,.5-1,.6c-.2,0-.3,.1-.3,.2,0,.2,0,.3,.4,.3s.6,0,1-.1c.6-.1,1.3-.1,2.1-.1s1,0,1.3,.1,.5,.1,.6,.1c.2,0,.3-.1,.3-.3s-.2-.3-.5-.3c-.5,0-.9-.3-1.1-.7s-.3-1.2-.3-2.2v-.4c0-.6,0-.9,0-1.1,0-.2,0-.4,.3-.5l.4-.4,.3-.3c0-.1,.2-.2,.3-.2s.3,.1,.4,.4c.2,.4,.7,1.1,1.6,2.3s1.6,2.1,2.1,2.7c.2,.3,.3,.4,.4,.5,.3,.3,.6,.5,.9,.5s.4,0,.8-.1h.6c.4,0,1,0,1.6,.1h.3c.2,0,.3-.1,.3-.2,0-.2,0-.3-.2-.3h-.2c-.9-.4-1.6-.7-2.2-1.3-.7-.7-1.9-2.2-3.5-4.4l-.7-.9c-.3-.4-.4-.7-.4-.8,0-.2,.3-.6,.8-1,.2-.2,.5-.5,1-.9,1.1-1,1.9-1.7,2.5-2.1,.6-.4,1.1-.6,1.5-.7,.3,0,.4-.1,.4-.3s0-.3-.3-.3c-.3,0-.7,0-1.4,.1h-.8c-.3,0-.8,0-1.5-.1h-.8c-.2,0-.4,.1-.4,.2,0,.2,0,.3,.3,.3,.3,0,.5,.1,.7,.2,.2,.1,.3,.3,.3,.5,0,.6-.9,1.7-2.7,3.3l-1.4,1.2-.9,.9c-.3,.2-.4,.3-.5,.3s-.2-.1-.2-.4v-3.5l.2-.5h0Zm17.2-.9l-.7-.8c-.4-.4-.6-.7-.7-.8s-.3-.1-.5-.1h-.5c-.6,.1-1.1,.1-1.6,.1h-1.1c-.2,0-.3,.1-.3,.3s0,.2,.3,.2c1.5,.1,2.2,1.1,2.2,3.1v6.5c0,.8-.2,1.4-.4,1.8s-.6,.7-1,.8c-.2,.1-.3,.1-.3,.3s0,.2,.3,.2,.3,0,.5-.1c.5-.1,1.1-.1,1.7-.1s1.3,0,1.8,.1h.4c.2,0,.3-.1,.3-.3s0-.2-.3-.2c-1-.1-1.7-.5-1.9-1.2-.2-.7-.3-2-.3-4v-4.1c0-.3,0-.4,.2-.4s.2,.1,.3,.3l8.8,9.8c0,.1,.2,.2,.4,.2s.2-.1,.2-.3v-10.3c0-1.3,.5-2.1,1.3-2.2,.2,0,.3-.1,.3-.3s0-.3-.3-.3h-.3c-1,.1-1.7,.2-2.1,.2s-.5,0-.8-.1c-.5-.1-.9-.1-1.1-.1s-.3,.1-.3,.3,0,.2,.3,.2c.9,.1,1.5,.4,1.8,.9s.5,1.6,.5,3.1,0,2.6,0,4.1c0,.4,0,.6-.2,.6s-.4-.2-.9-.7l-.3-.4-5.1-5.7c0-.1-.2-.2-.5-.6h0Zm15.7-1.3c-1,.4-1.8,.9-2.4,1.6-.5,.6-1,1.3-1.3,2.2s-.5,1.7-.5,2.6c0,2,.6,3.7,1.9,4.9s2.9,1.8,5,1.8,3.9-.7,5.1-2.1c1.3-1.4,1.9-3.2,1.9-5.3s-.6-3.4-1.9-4.6c-1.2-1.2-2.9-1.8-4.9-1.8-.9,.2-1.9,.3-2.9,.7h0Zm5.6,1.4c.6,.6,1.1,1.3,1.5,2.3s.6,2,.6,3c0,1.8-.4,3.2-1.2,4.2s-1.9,1.6-3.2,1.6-2.7-.6-3.6-1.9c-.9-1.3-1.4-2.9-1.4-4.9s.4-3.1,1.1-4c.7-1,1.7-1.4,3-1.4,1.2-.1,2.3,.3,3.2,1.1h0Zm14.3-1.5c0,.2,0,.3,.3,.3h.4c.5,.2,.8,.4,.8,.8s0,.4-.2,.7c0,.2-.5,.6-1,1.2l-1,1.2-.4,.5c0,.1-.2,.2-.3,.2s-.3-.1-.5-.4l-.7-1-.7-.9c-.4-.7-.7-1.2-.7-1.6s0-.3,.2-.5c.2-.1,.3-.2,.6-.3,.2,0,.3-.1,.3-.3s0-.3-.3-.3h-1.5c-.4,.1-.8,.2-1.3,.2s-1.3,0-2.3-.1h-.5c-.2,0-.3,.1-.3,.3s0,.3,.4,.3c.6,.1,1.1,.4,1.5,.7,.4,.4,1.2,1.4,2.4,3.1,.4,.6,.8,1.1,1.1,1.5,.5,.6,.7,1,.7,1.1s-.2,.5-.7,1-.8,.9-1.6,1.8c-.8,1-1.5,1.7-2,2.2-.5,.4-1,.7-1.5,.8-.2,0-.3,.1-.3,.3s0,.1,0,.2h2.5c.8,.1,1.6,.1,2.4,.2h.4c0,0,.2-.1,.2-.2s0-.3-.3-.3c-1-.1-1.5-.4-1.5-.9s.7-1.6,2.2-3.2c.2-.3,.4-.5,.6-.7l.2-.2,.2,.2,.5,.6c.8,1.1,1.4,1.8,1.7,2.3,.3,.5,.5,.9,.5,1.1,0,.4-.3,.7-.8,.7s-.4,.1-.4,.3,0,.2,.3,.2h2.7c.4-.1,.9-.1,1.5,0h1.6c.2,.1,.3,0,.3-.2s0-.3-.3-.3c-.7-.1-1.3-.3-1.8-.8s-1.7-1.9-2.7-3.4c-.7-1-1.1-1.6-1.3-1.8-.4-.5-.6-.8-.6-.9s0-.3,.4-.6c0-.1,.5-.6,1.3-1.5,1-1.2,2-2.2,2.8-2.9,.3-.2,.7-.4,1.3-.5,.2,0,.3-.1,.3-.3s0-.3-.3-.3h-2.7c-.5,.1-1.1,.1-1.7,0h-.3c-.1,.2-.2,.3-.2,.4h0Zm11.7,1.1c0-.5,.2-.7,.7-.8,.3-.1,.4-.2,.4-.3,0-.2-.1-.3-.3-.3h-3.4c-.4,0-.8,0-1.1-.1h-.3c-.2,0-.3,.1-.3,.3s0,.3,.4,.3c.5,.1,.8,.3,1.1,.7,.3,.4,.6,1.2,1.1,2.3,.4,1,.8,2.2,1.4,3.4l2.3,5.2,.2,.6,.2,.5c.1,.2,.2,.2,.3,.2,.2,0,.3-.1,.5-.4,0-.1,.2-.5,.6-1.2,0-.1,.3-.7,.9-1.9l1.7-3.6,1.4-3.3c.4-1,.8-1.6,1-1.9,.2-.3,.5-.5,.9-.6,.2,0,.3-.1,.3-.3s-.1-.2-.2-.2h-.4c-.4,.1-.9,.1-1.5,.1h-2.5c-.2-.1-.2,0-.2,0,0,.2,.1,.2,.3,.3,.5,.1,.9,.2,1.2,.5s.4,.6,.4,1c0,.7-.4,1.8-1.1,3.4l-2.2,4.8c-.1,.2-.2,.3-.2,.3-.1,0-.2-.1-.3-.4l-2.2-5.3c-.7-1.6-1.1-2.8-1.1-3.4h0Zm16.3,.7c0-.6,.1-.9,.2-1.1,.1-.2,.4-.3,.9-.4,.1,0,.2,0,.2-.1v-.2c0-.2-.1-.2-.3-.2-.4,0-.9,0-1.5,.1h-.7c-.5,.1-1,.2-1.3,.2-.5,0-.9,0-1.2-.1-.2,0-.4-.1-.5-.1-.2,0-.2,.1-.2,.3s0,.2,.1,.2,.3,.1,.6,.2c.5,.1,.9,.3,1.1,.5,.2,.3,.3,.7,.3,1.3v8.6c0,.6-.1,1-.2,1.2-.2,.2-.5,.4-.9,.6l-.3,.2h0c0,.2,.1,.3,.3,.3s.4,0,.7-.1c.4-.1,.9-.1,1.5-.1s1.2,0,2,.1c.3,0,.6,.1,.8,.1,.4,0,.6-.1,.6-.3s-.2-.3-.5-.3c-.5,0-.9-.1-1.2-.4-.3-.3-.5-.6-.6-1.1v-9.4h0Zm8.5-.2c0-.9,.3-1.3,1-1.3s.4-.1,.4-.3-.2-.3-.6-.3-1,0-1.5,.1c-.7,.1-1.2,.1-1.5,.1s-.5,0-.9-.1h-1.1c-.2,0-.3,.1-.3,.3s.1,.3,.4,.3h.6c.9,.2,1.3,.8,1.3,1.8v8.1c0,.8-.1,1.3-.2,1.6-.2,.3-.4,.6-.9,.7-.2,0-.3,.1-.3,.2,0,.2,.1,.3,.3,.3h.5c.9-.1,1.7-.1,2.4-.1h2.3c.7,0,1,.1,1.2,.1h.9c.8,0,1.5-.3,1.9-.9,.5-.6,.8-1.4,.8-2.2s-.1-.4-.2-.4-.2,.2-.5,.6c-.9,1.3-2.5,1.9-4.6,1.9s-.8,0-.9-.1c-.3-.1-.4-.8-.4-2v-8.4h-.1Zm12.4,0c0-.9,.3-1.3,1-1.3s.4-.1,.4-.3-.2-.3-.6-.3-1,0-1.5,.1c-.7,.1-1.2,.1-1.5,.1s-.5,0-.9-.1h-1.1c-.2,0-.3,.1-.3,.3s.1,.3,.4,.3h.6c.9,.2,1.3,.8,1.3,1.8v8.1c0,.8-.1,1.3-.2,1.6-.2,.3-.4,.6-.9,.7-.2,0-.3,.1-.3,.2,0,.2,.1,.3,.3,.3h.5c.9-.1,1.7-.1,2.4-.1h2.3c.7,0,1,.1,1.2,.1h.9c.8,0,1.5-.3,1.9-.9,.5-.6,.8-1.4,.8-2.2s-.1-.4-.2-.4-.2,.2-.5,.6c-.9,1.3-2.5,1.9-4.6,1.9s-.8,0-.9-.1c-.3-.1-.4-.8-.4-2v-8.4h-.1Zm12.3,0c0-.5,.2-.9,.5-1h1.9c1-.1,1.8,0,2.3,.3,.5,.3,.7,.8,.7,1.4s.1,.4,.2,.4c.3,0,.4-.3,.4-.8s0-.6-.1-1.2c0-.4-.1-.6-.1-.8s-.1-.3-.3-.3h-.1c-.5,.1-1.8,.1-3.9,.1h-5.5c-.2,0-.3,.1-.3,.2,0,.2,.1,.3,.3,.3,.7,.1,1.2,.3,1.5,.5,.2,.3,.4,.7,.4,1.5v7.7c0,.6,0,1.1-.1,1.4-.1,.4-.2,.7-.3,.8-.1,.2-.4,.3-.7,.4-.1,.1-.2,.1-.2,.3s.1,.2,.3,.2h.6c1-.1,1.7-.1,2.1-.1,.7,0,1.3,0,1.7,.1h1.1c.5,.2,1,.2,1.4,.2,.7,0,1.3-.1,1.7-.3s.8-.6,1.1-1.1c.3-.6,.5-1.2,.5-1.8s0-.2-.1-.2q-.1-.1-.2-.1s-.1,0-.1,.1c-.8,1.6-2.5,2.4-5.1,2.4s-.5-.1-.7-.2c-.1-.1-.3-.3-.4-.6-.1-.4-.2-1.1-.2-2v-.9c0-.7,0-1.2,.1-1.5,0-.3,.1-.5,.2-.6,.1-.1,.3-.1,.6-.1h.7c.7,0,1.1,0,1.4,.1,.2,0,.4,.1,.6,.3,.3,.3,.5,.7,.6,1.2,0,.3,.1,.4,.3,.4s.1,0,.2-.1v-.7c0-.4,0-.8-.1-1.3-.1-.8-.1-1.2-.1-1.5v-.8c0-.2-.1-.3-.2-.3s-.2,.1-.3,.2l-.2,.5c-.3,.7-.8,1.1-1.5,1.1h-1.5c-.3,0-.5-.1-.6-.2-.1-.2-.1-.5-.1-1.1v-2.1l-.4-.4h0Z"/><polygon class="cls-2" points="157 71.3 157 0 85.7 0 85.7 71.3 157 71.3"/><path class="cls-1" d="M148,9V27h-6.7c0-3.3-3.3-6-7.3-6s-5.5,1.4-6.7,3.5v22.5c0,4.8,3.7,8.6,8.3,8.7h0v6.7h-28.6v-6.7h0c4.6,0,8.3-3.9,8.3-8.7V24.5c-1.2-2.1-3.7-3.5-6.7-3.5s-7.3,2.7-7.3,6h-6.7V9h53.4Z"/></g></g></svg>