<svg xmlns="http://www.w3.org/2000/svg" viewBox="0 0 343.3 76.8"><defs><style>.cls-1{fill:#fafafa;}.cls-2{fill:#ff8200;}</style></defs><g id="Layer_2" data-name="Layer 2"><g id="Layer_1-2" data-name="Layer 1"><path class="cls-1" d="M114.5,24.6a3.2,3.2,0,0,1,1,2.2c.1.5.3.7.6.7s.5-.3.5-.7-.1-.6-.1-1.1a10.4,10.4,0,0,1-.1-2,2.9,2.9,0,0,0-.3-1.7c-.2-.2-.7-.3-1.6-.3H89.1c-.5,0-.9.1-1,.3s-.2.7-.2,1.4a11,11,0,0,1-.4,2.8,10.5,10.5,0,0,0-.3,1.8c0,.4.1.6.4.6s.5-.3.6-.9a6,6,0,0,1,1.3-2.9,4.3,4.3,0,0,1,2.8-.8h6.2a2,2,0,0,1,1.1.2c.2.2.2.5.2,1.1V49.2a4.5,4.5,0,0,1-.6,2.7,3.8,3.8,0,0,1-2.4,1c-.5.1-.8.2-.8.5s.2.5.7.5h10.1c.4,0,.7-.2.7-.5s-.3-.4-.8-.5a3.2,3.2,0,0,1-3.1-3.3V25.8a2.2,2.2,0,0,1,.3-1.4,1.9,1.9,0,0,1,1.3-.3h6.6a5.6,5.6,0,0,1,2.7.5Zm12.7-.9a3.5,3.5,0,0,1,1.9-.4h3.7a19.1,19.1,0,0,1,5,.4,2.4,2.4,0,0,1,1.8,1.4,3.5,3.5,0,0,1,.3,1.4v.6c0,.5.2.7.5.7s.4-.1.5-.4a4.9,4.9,0,0,0,.2-1.7V24.3a13.1,13.1,0,0,1,.2-1.9,4.3,4.3,0,0,1,.1-.5c0-.5-.3-.7-.8-.7h-2.6l-3.3.2h-5.1a64.4,64.4,0,0,1-8.1-.4H120c-.7,0-1.1.2-1.1.6s.2.4.7.4a3.2,3.2,0,0,1,2.9,1.2c.5.8.7,2.3.7,4.5V49.3c0,1.9-.6,3-1.7,3.3l-.9.3q-.6.1-.6.6c0,.3.3.5.8.5l1.2-.2a38.2,38.2,0,0,1,5.8-.3,73.8,73.8,0,0,1,7.4.4H137a6.4,6.4,0,0,0,5.2-2.5,6.4,6.4,0,0,0,1.7-3.6c0-.4-.1-.6-.4-.6a.7.7,0,0,0-.5.4c-1.8,2.8-5.7,4.2-11.8,4.2a8.4,8.4,0,0,1-3.6-.5c-.5-.3-.7-1.2-.7-2.5V39.4c0-.5.1-.8.4-.9a3,3,0,0,1,1.5-.2H134a5.5,5.5,0,0,1,2.9.6A3,3,0,0,1,138,41v.7a.6.6,0,0,0,.6.5c.3,0,.5-.2.5-.6v-.7a26.2,26.2,0,0,1-.1-2.8c0-1.2.1-2.6.2-4.1v-.5c0-.4-.2-.6-.5-.6s-.5.2-.6.6a4.4,4.4,0,0,1-.7,2,3.4,3.4,0,0,1-1.6.7,20.6,20.6,0,0,1-3.9.3h-3.6a2.2,2.2,0,0,1-1.2-.2A2.7,2.7,0,0,1,127,35V25.5c-.2-1-.1-1.6.2-1.8Zm47.6,5.4V26.6a7.3,7.3,0,0,1,.5-3.1,3.1,3.1,0,0,1,1.9-1.2c.3-.1.5-.2.5-.4s-.2-.5-.7-.5h-3.5l-4.3-.2h-1c-.5,0-.7.1-.7.4s.2.5.7.6a7.6,7.6,0,0,1,3.3,1.2,4.9,4.9,0,0,1,1.2,2.8l.3,5.4V46.5c0,.3-.1.4-.3.4l-.7-.6L150.4,21.8a1.5,1.5,0,0,0-1.2-.7h-4.3c-.3,0-.5.1-.5.4s.2.5.6.5a4.7,4.7,0,0,1,3.7,2.7,13,13,0,0,1,1.3,6.4v16a7.1,7.1,0,0,1-.7,3.7,4.6,4.6,0,0,1-2.7,1.8c-.5.2-.7.3-.7.6s.2.4.7.4h8.8a.5.5,0,0,0,.5-.5c0-.3-.3-.5-.8-.6a5,5,0,0,1-2.5-.9,3.4,3.4,0,0,1-.8-2.1V31.3c0-.7.1-1.1.4-1.1h.3l.2.3L173,53.3l.5.6.5.2a.7.7,0,0,0,.7-.6,22.1,22.1,0,0,0,.1-3.2V29.1Zm34.1,0V26.6a7.3,7.3,0,0,1,.5-3.1,3.1,3.1,0,0,1,1.9-1.2c.3-.1.5-.2.5-.4s-.3-.5-.7-.5h-3.5l-4.3-.2h-1c-.5,0-.7.1-.7.4s.2.5.7.6a7.6,7.6,0,0,1,3.3,1.2,4.9,4.9,0,0,1,1.2,2.8l.3,5.4V46.5c0,.3-.1.4-.3.4l-.7-.6L184.5,21.8a1.5,1.5,0,0,0-1.2-.7H179c-.3,0-.5.1-.5.4s.2.5.6.5a4.7,4.7,0,0,1,3.7,2.7,13,13,0,0,1,1.3,6.4v16a7.1,7.1,0,0,1-.7,3.7,4.6,4.6,0,0,1-2.7,1.8c-.5.2-.7.3-.7.6s.2.4.7.4h8.8a.5.5,0,0,0,.5-.5c0-.3-.3-.5-.8-.6a5,5,0,0,1-2.5-.9,3.4,3.4,0,0,1-.8-2.1V31.3c0-.7.1-1.1.4-1.1h.3l.2.3L207,53.3l.5.6.5.2a.7.7,0,0,0,.7-.6,22.1,22.1,0,0,0,.1-3.2V29.1Zm12.9-5.4a3.5,3.5,0,0,1,1.9-.4h3.7a19.1,19.1,0,0,1,5,.4,2.4,2.4,0,0,1,1.8,1.4,3.5,3.5,0,0,1,.3,1.4v.6c0,.5.2.7.5.7s.4-.1.5-.4a4.9,4.9,0,0,0,.2-1.7V24.3a13.1,13.1,0,0,1,.2-1.9,4.3,4.3,0,0,1,.1-.5c0-.5-.3-.7-.8-.7h-2.6l-3.3.2h-5.1a64.4,64.4,0,0,1-8.1-.4h-1.6c-.7,0-1.1.2-1.1.6s.2.4.7.4a3.2,3.2,0,0,1,2.9,1.2c.5.8.7,2.3.7,4.5V49.3c0,1.9-.6,3-1.7,3.3l-.9.3q-.6.1-.6.6c0,.3.2.5.8.5l1.2-.2a38.2,38.2,0,0,1,5.8-.3,73.8,73.8,0,0,1,7.4.4h1.8a6.4,6.4,0,0,0,5.2-2.5,6.4,6.4,0,0,0,1.7-3.6c0-.4-.1-.6-.4-.6a.7.7,0,0,0-.5.4c-1.8,2.8-5.7,4.2-11.8,4.2a8.4,8.4,0,0,1-3.6-.5c-.5-.3-.7-1.2-.7-2.5V39.4c0-.5.1-.8.4-.9a3,3,0,0,1,1.5-.2h5.2a5.5,5.5,0,0,1,2.9.6,3,3,0,0,1,1.1,2.1v.7a.6.6,0,0,0,.6.5c.3,0,.5-.2.5-.6v-.7a26.2,26.2,0,0,1-.1-2.8c0-1.2.1-2.6.2-4.1v-.5c0-.4-.2-.6-.5-.6s-.5.2-.6.6a4.4,4.4,0,0,1-.7,2,3,3,0,0,1-1.6.7,20.6,20.6,0,0,1-3.9.3H223a2.2,2.2,0,0,1-1.2-.2,2.7,2.7,0,0,1-.2-1.3V25.5c-.3-1-.1-1.6.2-1.8Zm24.1-.3a7.7,7.7,0,0,0-2.8,6.2,7.1,7.1,0,0,0,2.2,5.5c1.4,1.4,3.9,2.7,7.4,3.9s5.4,2,6.1,2.6a5.8,5.8,0,0,1-.1,9,8,8,0,0,1-5.5,1.9,10,10,0,0,1-5.9-2,9.6,9.6,0,0,1-3.6-4.9c-.2-.8-.5-1.1-.8-1.2s-.5.2-.5.7a12.7,12.7,0,0,0,.6,3q.6,1.9.6,2.1a11.2,11.2,0,0,0,.4,1.6,1.7,1.7,0,0,0,.6.6,8.2,8.2,0,0,0,3.2,1.2,19.9,19.9,0,0,0,4,.5,11.8,11.8,0,0,0,8.2-2.8,9.3,9.3,0,0,0,3.2-7.2q0-6.5-8.7-9.3l-5.6-2a6,6,0,0,1-2.1-1.8,5.8,5.8,0,0,1-1.1-3.4,4.8,4.8,0,0,1,1.7-3.7,6,6,0,0,1,4.2-1.5,10.8,10.8,0,0,1,5.8,1.6,7.7,7.7,0,0,1,3.4,4.2c.3.8.5,1.1.8,1.1s.5-.2.5-.7a5.8,5.8,0,0,0-.1-1l-.4-2.4a23.6,23.6,0,0,1-.3-2.4q0-1.2-.6-1.2h-.3l-.3.3a.7.7,0,0,1-.6.2h-.4l-1.6-.7a11.1,11.1,0,0,0-4.3-.7,12.9,12.9,0,0,0-7.3,2.7Zm25.3,0a7.7,7.7,0,0,0-2.8,6.2,7.1,7.1,0,0,0,2.2,5.5c1.4,1.4,3.9,2.7,7.4,3.9s5.4,2,6.1,2.6a5.8,5.8,0,0,1-.1,9,8,8,0,0,1-5.5,1.9,10,10,0,0,1-5.9-2,9.6,9.6,0,0,1-3.6-4.9c-.2-.8-.5-1.1-.8-1.2s-.5.2-.5.7a12.7,12.7,0,0,0,.6,3q.6,1.9.6,2.1a11.2,11.2,0,0,0,.4,1.6,1.7,1.7,0,0,0,.6.6,8.2,8.2,0,0,0,3.2,1.2,19.9,19.9,0,0,0,4,.5,11.8,11.8,0,0,0,8.2-2.8,9.3,9.3,0,0,0,3.2-7.2q0-6.5-8.7-9.3l-5.6-2a6,6,0,0,1-2.1-1.8,5.8,5.8,0,0,1-1.1-3.4,4.8,4.8,0,0,1,1.7-3.7,6,6,0,0,1,4.2-1.5,10.8,10.8,0,0,1,5.8,1.6,7.7,7.7,0,0,1,3.4,4.2c.3.8.5,1.1.8,1.1s.5-.2.5-.7a5.8,5.8,0,0,0-.1-1l-.4-2.4a23.6,23.6,0,0,1-.3-2.4q0-1.2-.6-1.2h-.3l-.3.3a.7.7,0,0,1-.6.2h-.4l-1.6-.7a11.1,11.1,0,0,0-4.3-.7,12.6,12.6,0,0,0-7.3,2.7Zm28.5.3a3.5,3.5,0,0,1,1.9-.4h3.7a19.1,19.1,0,0,1,5,.4,2.4,2.4,0,0,1,1.8,1.4,3.5,3.5,0,0,1,.3,1.4v.6c0,.5.2.7.5.7s.4-.1.5-.4a4.9,4.9,0,0,0,.2-1.7V24.3a13.1,13.1,0,0,1,.2-1.9,4.3,4.3,0,0,1,.1-.5c0-.5-.3-.7-.8-.7h-2.6l-3.3.2h-5.1a64.4,64.4,0,0,1-8.1-.4h-1.6c-.7,0-1.1.2-1.1.6s.2.4.7.4a3.2,3.2,0,0,1,2.9,1.2c.5.8.7,2.3.7,4.5V49.3c0,1.9-.6,3-1.7,3.3l-.9.3q-.6.1-.6.6c0,.3.3.5.8.5l1.2-.2a38.2,38.2,0,0,1,5.8-.3,73.8,73.8,0,0,1,7.4.4h1.8a6.4,6.4,0,0,0,5.2-2.5,6.4,6.4,0,0,0,1.7-3.6c0-.4-.1-.6-.4-.6a.7.7,0,0,0-.5.4c-1.8,2.8-5.7,4.2-11.8,4.2a8.4,8.4,0,0,1-3.6-.5c-.5-.3-.7-1.2-.7-2.5V39.4c0-.5.1-.8.4-.9a3,3,0,0,1,1.5-.2h5.2a5.5,5.5,0,0,1,2.9.6,3,3,0,0,1,1.1,2.1v.7a.6.6,0,0,0,.6.5c.3,0,.5-.2.5-.6v-.7a26.2,26.2,0,0,1-.1-2.8c0-1.2.1-2.6.2-4.1v-.5c0-.4-.2-.6-.5-.6s-.5.2-.6.6a4.4,4.4,0,0,1-.7,2,3.4,3.4,0,0,1-1.6.7,20.6,20.6,0,0,1-3.9.3h-3.6a2.2,2.2,0,0,1-1.2-.2,2.7,2.7,0,0,1-.2-1.3V25.5c-.2-1-.1-1.6.2-1.8Zm26.9,0a3.5,3.5,0,0,1,1.9-.4h3.7a19.1,19.1,0,0,1,5,.4,2.4,2.4,0,0,1,1.8,1.4,3.5,3.5,0,0,1,.3,1.4v.6c0,.5.2.7.5.7s.4-.1.5-.4a4.9,4.9,0,0,0,.2-1.7V24.3a13.1,13.1,0,0,1,.2-1.9,4.3,4.3,0,0,1,.1-.5c0-.5-.3-.7-.8-.7h-2.6l-3.3.2h-5.1a64.4,64.4,0,0,1-8.1-.4h-1.6c-.7,0-1.1.2-1.1.6s.2.4.7.4a3.2,3.2,0,0,1,2.9,1.2c.5.8.7,2.3.7,4.5V49.3c0,1.9-.6,3-1.7,3.3l-.9.4q-.6.2-.6.6c0,.3.2.5.8.5l1.2-.2a38.2,38.2,0,0,1,5.8-.3,73.8,73.8,0,0,1,7.4.4h1.8a6.4,6.4,0,0,0,5.2-2.5,6.4,6.4,0,0,0,1.7-3.6c0-.4-.1-.6-.4-.6a.7.7,0,0,0-.5.4c-1.8,2.8-5.7,4.2-11.8,4.2a8.4,8.4,0,0,1-3.6-.5c-.5-.3-.7-1.2-.7-2.5V39.5c0-.5.1-.8.4-.9a3,3,0,0,1,1.5-.2h5.2a5.5,5.5,0,0,1,2.9.6,3,3,0,0,1,1.1,2.1v.7a.6.6,0,0,0,.6.5c.3,0,.5-.2.5-.6V41a26.2,26.2,0,0,1-.1-2.8c0-1.2.1-2.6.2-4.1v-.5c0-.4-.2-.6-.5-.6s-.5.2-.6.6a4.4,4.4,0,0,1-.7,2,3.4,3.4,0,0,1-1.6.7,20.6,20.6,0,0,1-3.9.3h-3.6a2.2,2.2,0,0,1-1.2-.2,2.7,2.7,0,0,1-.2-1.3V25.6c-.2-1.1,0-1.7.2-1.9Z"/><path class="cls-1" d="M96.4,1.7a4.5,4.5,0,0,1,2-.2,3,3,0,0,1,1.8.4,2.2,2.2,0,0,1,.8,1.4c.1.3.2.4.3.4a.3.3,0,0,0,.3-.3,3.4,3.4,0,0,0-.1-.9,3.2,3.2,0,0,1-.1-.8V.9c0-.3-.2-.5-.6-.5H88.6c-.3,0-.4.1-.4.4V3.4a2.5,2.5,0,0,0-.1.8.3.3,0,0,0,.3.3c.2,0,.3-.1.4-.4V3.8a4.8,4.8,0,0,1,.4-1.5,1.3,1.3,0,0,1,.7-.5,9.3,9.3,0,0,1,2.9-.3c.6,0,.9.3.9.8v9.8a2.4,2.4,0,0,1-.4,1.5,1.5,1.5,0,0,1-1.3.6h-.4c-.1,0-.1.1-.1.3a.3.3,0,0,0,.3.3h6.7c.2,0,.3-.1.3-.2a.4.4,0,0,0-.4-.4c-.9-.1-1.5-.3-1.8-.8a6,6,0,0,1-.5-2.6V3c0-.7.1-1.1.4-1.3Zm20.1,6.1a3.1,3.1,0,0,1,.1,1.2v2.9a3.2,3.2,0,0,1-.3,1.6,1,1,0,0,1-1,.6.3.3,0,0,0-.3.3c0,.2.1.4.3.4h5.5c.4,0,.5-.1.5-.3s-.1-.3-.4-.3a1.9,1.9,0,0,1-1.6-.7,3.6,3.6,0,0,1-.5-2.1v-9A1.5,1.5,0,0,1,120,.8a.3.3,0,0,0,.3-.3c0-.2-.1-.3-.4-.3h-5.5a.3.3,0,0,0-.3.3.3.3,0,0,0,.3.3h.5c1,.2,1.5.7,1.5,1.6V4.8a4.2,4.2,0,0,1-.1,1.4c-.1.2-.4.3-.8.3h-4.9a1.6,1.6,0,0,1-1-.2,2.2,2.2,0,0,1-.2-1.2V2.5A1.5,1.5,0,0,1,110.6.9a.3.3,0,0,0,.3-.3c0-.2-.1-.3-.4-.3H105a.3.3,0,0,0-.3.3.3.3,0,0,0,.3.3,2.3,2.3,0,0,1,1.5.6,1.2,1.2,0,0,1,.4,1.1v9.3a3.2,3.2,0,0,1-.3,1.6,1,1,0,0,1-1,.6.3.3,0,0,0-.3.3c0,.2.1.4.3.4h5.5c.4,0,.5-.1.5-.3s-.1-.3-.4-.3a1.8,1.8,0,0,1-1.6-.7,3.6,3.6,0,0,1-.5-2.1V8.8a1.6,1.6,0,0,1,.2-1,1.4,1.4,0,0,1,.9-.2h5c.9,0,1.2.1,1.3.2Zm12.7-5.4a1.2,1.2,0,0,1,.5-1.1h2a5.5,5.5,0,0,1,2.5.5,1.6,1.6,0,0,1,.8,1.5c0,.3.1.5.2.5s.4-.3.4-.8a7.2,7.2,0,0,0-.1-1.3c0-.4-.1-.7-.1-.9a.3.3,0,0,0-.3-.3H124.9c-.2,0-.3.1-.3.2a.3.3,0,0,0,.3.3,2.7,2.7,0,0,1,1.6.6,2.2,2.2,0,0,1,.4,1.6v8.3a6.6,6.6,0,0,1-.1,1.5,4.6,4.6,0,0,1-.3.9c-.1.2-.4.3-.8.5s-.2.2-.2.3.1.2.3.2h7.4a3,3,0,0,0,1.8-.4,4.5,4.5,0,0,0,1.2-1.2,3.6,3.6,0,0,0,.6-2c0-.1,0-.2-.1-.2h-.3c-.9,1.7-2.7,2.6-5.6,2.6l-.7-.2a.9.9,0,0,1-.4-.6,5.6,5.6,0,0,1-.2-2.1V10a7.6,7.6,0,0,1,.1-1.7.8.8,0,0,1,.2-.6l.7-.2h2.2a1.5,1.5,0,0,1,.7.3,2.6,2.6,0,0,1,.6,1.4c0,.3.1.4.3.4h.2V8.9a7.1,7.1,0,0,0-.1-1.4,12.6,12.6,0,0,1-.1-1.6v-1c0-.2-.1-.3-.2-.3l-.3.2-.2.5A1.7,1.7,0,0,1,132,6.4h-1.7c-.4,0-.6-.1-.7-.3a3.5,3.5,0,0,1-.1-1.2v-2l-.3-.5ZM159,.6c0,.2.1.3.4.3a2.5,2.5,0,0,1,1.5.5,2,2,0,0,1,.6,1.5V5.8a18.2,18.2,0,0,1-.4,4.5,4.6,4.6,0,0,1-1.2,2.4,4.5,4.5,0,0,1-3.3,1.2,4.4,4.4,0,0,1-3.2-1.2,3.4,3.4,0,0,1-1.1-1.8,14.8,14.8,0,0,1-.3-3.6V5.4l.2-2.6a2.4,2.4,0,0,1,.3-1.4,1.3,1.3,0,0,1,.9-.5h.4c.1,0,.1-.1.1-.2s-.2-.3-.5-.3H148c-.2,0-.4.1-.4.3s.1.3.4.3l1.2.3a1,1,0,0,1,.6.5,2.5,2.5,0,0,1,.1,1v6c0,2.6.7,4.4,2,5.3a7.1,7.1,0,0,0,4.1,1q3.8,0,5.4-2.4a8.1,8.1,0,0,0,1-2.9,31.9,31.9,0,0,0,.3-4.9V2.6c0-1.1.3-1.7.8-1.7h.4a.3.3,0,0,0,.3-.3.3.3,0,0,0-.3-.3h-4.3c-.5.2-.5.3-.5.5Zm14.1,1.6-.7-.8-.8-.9h-4c-.2,0-.4.1-.4.3a.3.3,0,0,0,.3.3c1.6.1,2.4,1.2,2.4,3.4v7a3.7,3.7,0,0,1-.4,2,1.4,1.4,0,0,1-1.1.9q-.3.2-.3.3a.3.3,0,0,0,.3.3h4.8a.3.3,0,0,0,.3-.3c0-.2-.1-.2-.3-.3s-1.8-.5-2-1.3a20.2,20.2,0,0,1-.3-4.4V4.2c0-.3.1-.5.3-.5s.2.1.3.3l9.5,10.6.4.2c.1,0,.2-.1.2-.3V3.3c0-1.4.5-2.2,1.4-2.4a.3.3,0,0,0,.3-.3.3.3,0,0,0-.3-.3h-.3l-2.3.2h-2.1a.3.3,0,0,0-.3.3c0,.1.1.2.3.2a2.4,2.4,0,0,1,2,1,8,8,0,0,1,.5,3.3c0,1.4,0,2.9-.1,4.4s-.1.6-.2.6-.5-.3-1-.8l-.3-.3-5.5-6.2-.6-.6Zm18.6.4a2.9,2.9,0,0,1,.2-1.2c.1-.2.5-.3,1-.4h.3a.4.4,0,0,0,.1-.3.3.3,0,0,0-.3-.3h-5.9a.3.3,0,0,0-.3.3c0,.1.1.2.2.3l.7.2a2.3,2.3,0,0,1,1.2.5,2.4,2.4,0,0,1,.3,1.4v9.2a3.9,3.9,0,0,1-.2,1.3,2,2,0,0,1-1,.7l-.3.2h0c0,.1.1.2.3.2h2.5l2.2.2h.8c.5,0,.7-.1.7-.3s-.2-.3-.5-.3a2,2,0,0,1-1.3-.4,2.3,2.3,0,0,1-.6-1.2V2.6Zm9.9-.7a.9.9,0,0,1,.8-.9c.3-.1.4-.2.4-.3a.3.3,0,0,0-.3-.3h-5.3a.3.3,0,0,0-.3.3c0,.2.1.3.4.4a2,2,0,0,1,1.2.8,10.3,10.3,0,0,1,1.1,2.5c.4,1.1.9,2.3,1.5,3.7l2.5,5.6.3.6.2.5q.2.3.3.3c.2,0,.4-.2.5-.5l.6-1.3c0-.1.4-.8.9-2.1l1.8-3.9,1.6-3.6a9.1,9.1,0,0,1,1.1-2.1,2.1,2.1,0,0,1,1-.6.3.3,0,0,0,.3-.3c0-.2-.1-.3-.2-.3h-4.9c-.2,0-.3.1-.3.2s.1.3.4.3a3.2,3.2,0,0,1,1.3.5,1.4,1.4,0,0,1,.5,1.1,10.1,10.1,0,0,1-1.2,3.7l-2.4,5.2q-.2.3-.3.3c-.1,0-.2-.1-.3-.4l-2.3-5.7a22.1,22.1,0,0,1-.9-3.6Zm18,.5a1.2,1.2,0,0,1,.5-1.1h2a5.5,5.5,0,0,1,2.5.5,1.6,1.6,0,0,1,.8,1.5c0,.3.1.5.2.5s.4-.3.4-.8a7.2,7.2,0,0,0-.1-1.3c0-.4-.1-.7-.1-.9a.3.3,0,0,0-.3-.3H215.3c-.2,0-.3.1-.3.2a.3.3,0,0,0,.3.3,2.7,2.7,0,0,1,1.6.6,2.2,2.2,0,0,1,.4,1.6v8.3a6.6,6.6,0,0,1-.1,1.5l-.3.9c-.1.2-.4.3-.8.5s-.2.2-.2.3.1.2.3.2h7.4a3,3,0,0,0,1.8-.4,4.5,4.5,0,0,0,1.2-1.2,3.6,3.6,0,0,0,.6-2c0-.1,0-.2-.1-.2h-.3c-.9,1.7-2.7,2.6-5.6,2.6l-.7-.2a.9.9,0,0,1-.4-.6,5.6,5.6,0,0,1-.2-2.1V10a7.6,7.6,0,0,1,.1-1.7.8.8,0,0,1,.2-.6l.7-.2h2.2a1.5,1.5,0,0,1,.7.3,2.6,2.6,0,0,1,.6,1.4c0,.3.1.4.3.4h.2V8.9a7.1,7.1,0,0,0-.1-1.4,12.6,12.6,0,0,1-.1-1.6v-1c0-.2-.1-.3-.2-.3l-.3.2-.2.5a1.7,1.7,0,0,1-1.6,1.1h-1.7c-.4,0-.6-.1-.7-.3a3.5,3.5,0,0,1-.1-1.2v-2l-.3-.5Zm15.1,6.2a.6.6,0,0,1,.2-.5H236a1.9,1.9,0,0,1,1.2.3,4.4,4.4,0,0,1,.9,1.5,21.3,21.3,0,0,0,2.4,4,2.7,2.7,0,0,0,2,1.1,3.4,3.4,0,0,0,1.5-.4c.6-.3.9-.5.9-.7s-.1-.2-.2-.2h-.6a1.3,1.3,0,0,1-1-.4l-1-1.3L241,10l-.9-1.7-.3-.5a.4.4,0,0,1-.1-.3l.2-.2A3.4,3.4,0,0,0,241.5,6a3.3,3.3,0,0,0,.6-1.9,3.2,3.2,0,0,0-1.3-2.7A5.2,5.2,0,0,0,237.5.3h-7.2a.3.3,0,0,0-.3.3c0,.2.1.3.4.4a2.7,2.7,0,0,1,1.7.8,3.2,3.2,0,0,1,.3,1.7v9a1.6,1.6,0,0,1-.3,1.1l-1,.6c-.1,0-.2.1-.2.3s.1.3.4.3h5.3c.2,0,.4-.1.4-.3s-.1-.3-.4-.3-1.2-.3-1.4-.8a7.6,7.6,0,0,1-.4-2.7V8.6Zm.3-7.2a1.3,1.3,0,0,1,1-.3,3.4,3.4,0,0,1,2.6,1,3.5,3.5,0,0,1,1,2.6,2.6,2.6,0,0,1-.8,1.9c-.3.2-.5.4-.8.4h-2.3l-.8-.2a1.3,1.3,0,0,1-.2-.8V2.5a1.6,1.6,0,0,1,.3-1.1Zm14.3-.1a3.8,3.8,0,0,0-1.1,2.9,3.6,3.6,0,0,0,.8,2.4,9.8,9.8,0,0,0,3.1,1.9l1.6.7a3.6,3.6,0,0,1,1.5,1,2.1,2.1,0,0,1,.4,1.4,2.7,2.7,0,0,1-2.7,2.7,3.7,3.7,0,0,1-2.6-1.2,7.5,7.5,0,0,1-1.8-3c0-.2-.1-.3-.2-.3s-.3.2-.3.5a6.5,6.5,0,0,0,.4,1.8,5,5,0,0,1,.3,1.4,1.2,1.2,0,0,0,.1.5l.6.2,1.1.3a9.6,9.6,0,0,0,2.3.5,4.3,4.3,0,0,0,3.1-1.4,4.4,4.4,0,0,0,1.3-3.2,4,4,0,0,0-1-2.8,9,9,0,0,0-3.3-2l-2.5-1.2a2,2,0,0,1-.6-1.4,1.8,1.8,0,0,1,.7-1.5,2.5,2.5,0,0,1,1.6-.6A4,4,0,0,1,254.7,2a4.7,4.7,0,0,1,1.5,2.5c.1.3.1.4.3.4s.3-.2.3-.5V1c0-.2-.1-.3-.2-.3h-.2l-.5.3h-.3l-.7-.2L254,.6a4.3,4.3,0,0,0-1.9-.4,4.1,4.1,0,0,0-2.8,1.1Zm16.1,1.3a2.9,2.9,0,0,1,.2-1.2c.1-.2.5-.3,1-.4h.3a.4.4,0,0,0,.1-.3.3.3,0,0,0-.3-.3h-5.9a.3.3,0,0,0-.3.3c0,.1.1.2.2.3l.7.2a2.3,2.3,0,0,1,1.2.5,2.4,2.4,0,0,1,.3,1.4v9.2a3.9,3.9,0,0,1-.2,1.3,2,2,0,0,1-1,.7l-.3.2h0c0,.1.1.2.3.2h2.5l2.2.2h.8c.5,0,.7-.1.7-.3s-.2-.3-.5-.3a2,2,0,0,1-1.3-.4,2.3,2.3,0,0,1-.6-1.2V2.6Zm13.7-.9a4.5,4.5,0,0,1,2-.2,3,3,0,0,1,1.8.4,2.2,2.2,0,0,1,.8,1.4c.1.3.2.4.3.4a.3.3,0,0,0,.3-.3,3.4,3.4,0,0,0-.1-.9,3.2,3.2,0,0,1-.1-.8V.9c0-.3-.2-.5-.6-.5H271.3c-.3,0-.4.1-.4.4V3.3a2.5,2.5,0,0,0-.1.8.3.3,0,0,0,.3.3c.2,0,.3-.1.4-.4V3.7a6.2,6.2,0,0,1,.5-1.4,1.3,1.3,0,0,1,.7-.5,9.3,9.3,0,0,1,2.9-.3c.6,0,.9.3.9.8v9.8a2.4,2.4,0,0,1-.4,1.5,1.5,1.5,0,0,1-1.3.6h-.4c-.1,0-.1.1-.1.3a.3.3,0,0,0,.3.3h6.7c.2,0,.3-.1.3-.2a.4.4,0,0,0-.4-.4c-.9-.1-1.5-.3-1.8-.8a4.9,4.9,0,0,1-.5-2.5V3c0-.7.1-1.1.4-1.3Zm16.5,6.7a.9.9,0,0,1,.3-.5c.7-1.2,1.6-2.6,2.4-4.3a7.8,7.8,0,0,1,1.2-1.9,2.3,2.3,0,0,1,1.3-.7c.3-.1.4-.2.4-.3s-.1-.2-.3-.2h-4.7a.3.3,0,0,0-.3.3q0,.2.3.3a2.8,2.8,0,0,1,1.2.4c.3.3.5.5.5.8a10.9,10.9,0,0,1-1.1,2.6l-.7,1.3c-.4.7-.7,1.1-.9,1.1s-.5-.2-.7-.7l-.6-1.2L293,3.6a6.8,6.8,0,0,1-.8-1.9c0-.4.3-.6.8-.7s.4-.1.4-.3-.1-.3-.4-.3h-5.4a.3.3,0,0,0-.3.3c0,.2.1.3.4.3s1.6.7,2.2,1.9l1.6,3a21.8,21.8,0,0,0,1.2,2.2,3,3,0,0,1,.5,1.5v2a3.5,3.5,0,0,1-.4,2,2.7,2.7,0,0,1-1.6.8c-.2,0-.3.1-.3.2s.1.4.2.4h6.4c.3,0,.5-.1.5-.3a.3.3,0,0,0-.3-.3c-1.3-.1-2-.5-2.1-1.3V9.2a1.7,1.7,0,0,1,.1-.8Zm21-7.6A6.8,6.8,0,0,0,314,2.6,5.7,5.7,0,0,0,312.6,5a9.2,9.2,0,0,0-.5,2.8,7.2,7.2,0,0,0,2,5.3,7.7,7.7,0,0,0,5.4,2,7.2,7.2,0,0,0,5.6-2.3,8.4,8.4,0,0,0,2.1-5.7,6.7,6.7,0,0,0-2-5A7.2,7.2,0,0,0,319.9.2a9.2,9.2,0,0,0-3.3.6Zm6,1.5a5.7,5.7,0,0,1,1.6,2.5,8.7,8.7,0,0,1,.6,3.2,7.4,7.4,0,0,1-1.3,4.6,4.2,4.2,0,0,1-3.4,1.7,4.6,4.6,0,0,1-3.9-2.1,9,9,0,0,1-1.5-5.3,6.7,6.7,0,0,1,1.2-4.3A4.1,4.1,0,0,1,319.2,1a4.4,4.4,0,0,1,3.4,1.3Zm12.4,0a1.5,1.5,0,0,1,.2-.8c.2-.2.4-.2.8-.2h1.8c1.6,0,2.5.5,2.8,1.4s.1.2.1.4v.4c0,.2.1.3.2.3s.4-.3.4-.9V1.7a3.7,3.7,0,0,0-.1-.8c0-.4-.1-.5-.3-.5H330.7c-.2,0-.4.1-.4.3s.1.2.3.3a2.1,2.1,0,0,1,1.5.5,2.3,2.3,0,0,1,.5,1.7v8.6a7.4,7.4,0,0,1-.2,1.8,1.1,1.1,0,0,1-.8.7q-.3.1-.3.3a.3.3,0,0,0,.3.3h5.7c.2,0,.2-.1.2-.3a.3.3,0,0,0-.3-.3,2.7,2.7,0,0,1-1.6-.6,3.6,3.6,0,0,1-.5-2.3v-2a3.2,3.2,0,0,1,.2-1.5,5.3,5.3,0,0,1,1.8-.2,2.5,2.5,0,0,1,1.7.4,2.3,2.3,0,0,1,.7,1.5.3.3,0,0,0,.3.3c.2,0,.3-.1.3-.2V9.2l-.2-2c0-.5-.1-1-.1-1.4V5.2a.3.3,0,0,0-.3-.3.2.2,0,0,0-.2.2,3.6,3.6,0,0,1-.8,1.3,2.1,2.1,0,0,1-1.2.3h-1.5a.8.8,0,0,1-.6-.2c-.2-.2-.2-.4-.2-.8V2.3Z"/><path class="cls-1" d="M93.9,64.8a5.1,5.1,0,0,1,.2-1.6c.1-.2.5-.4,1.1-.6a.3.3,0,1,0,0-.6H89.5c-.2,0-.3.1-.3.2s0,.3.1.3h.3a4,4,0,0,1,1.3.4,1.5,1.5,0,0,1,.6.9v9.4a4.4,4.4,0,0,1-.3,1.9,1.3,1.3,0,0,1-1,.7.3.3,0,0,0-.3.3c0,.2.1.3.4.3h5.4a.3.3,0,0,0,.3-.3q0-.3-.6-.3a1.2,1.2,0,0,1-1.2-.8,6.5,6.5,0,0,1-.4-2.4v-.4a3.5,3.5,0,0,1,.1-1.2c0-.2.2-.4.3-.6l.5-.4.3-.3.3-.2.5.5a23.5,23.5,0,0,0,1.8,2.5c.9,1.3,1.7,2.2,2.3,3l.4.5a1.1,1.1,0,0,0,1,.5h3.5a.3.3,0,1,0,0-.6h-.2a4.7,4.7,0,0,1-2.3-1.3,41.4,41.4,0,0,1-3.8-4.8l-.8-1a2.1,2.1,0,0,1-.5-.9c0-.2.3-.6.9-1.1l1.1-1a20.8,20.8,0,0,1,2.7-2.3,5.1,5.1,0,0,1,1.7-.8c.3,0,.5-.2.5-.3s-.1-.3-.4-.3H99c-.3,0-.4.1-.4.3a.3.3,0,0,0,.3.3l.7.2a.5.5,0,0,1,.3.5c0,.6-1,1.8-2.9,3.5l-1.5,1.3-1,.9-.5.3c-.1,0-.2-.1-.2-.4V64.8Zm18.8-.9L112,63l-.8-.9h-4c-.2,0-.4.1-.4.3a.3.3,0,0,0,.3.3c1.6.1,2.4,1.2,2.4,3.4v7a5.3,5.3,0,0,1-.3,2,1.4,1.4,0,0,1-1.1.9q-.3.1-.3.3a.3.3,0,0,0,.3.3h4.8a.3.3,0,0,0,.3-.3c0-.2-.1-.2-.3-.3s-1.8-.5-2-1.3a20.2,20.2,0,0,1-.3-4.4V65.8c0-.3.1-.5.3-.5s.2.1.3.3l9.5,10.6.4.2c.1,0,.2-.1.2-.3V65c0-1.4.5-2.2,1.4-2.4a.3.3,0,0,0,0-.6h-.3l-2.3.2H118a.3.3,0,0,0-.3.3c0,.1.1.2.3.2a2.4,2.4,0,0,1,2,1,8,8,0,0,1,.5,3.3c0,1.4,0,2.9-.1,4.4s-.1.6-.2.6-.5-.3-1-.8l-.4-.4-5.5-6.2-.6-.5Zm17.2-1.4a6.8,6.8,0,0,0-2.6,1.8,5.7,5.7,0,0,0-1.4,2.4,9.2,9.2,0,0,0-.5,2.8,7.2,7.2,0,0,0,2,5.3,7.7,7.7,0,0,0,5.4,2,7.2,7.2,0,0,0,5.6-2.3,8.4,8.4,0,0,0,2.1-5.7,6.7,6.7,0,0,0-2-5,7.2,7.2,0,0,0-5.3-1.9,6.5,6.5,0,0,0-3.3.6Zm6,1.5a5.7,5.7,0,0,1,1.6,2.5,9.1,9.1,0,0,1,.6,3.2,7.4,7.4,0,0,1-1.3,4.6,4,4,0,0,1-3.4,1.7,4.6,4.6,0,0,1-3.9-2.1,9,9,0,0,1-1.5-5.3,6.7,6.7,0,0,1,1.2-4.3,4.1,4.1,0,0,1,3.3-1.6,4.3,4.3,0,0,1,3.4,1.3Zm15.7-1.7c0,.2.1.3.4.3h.5c.6.1.9.3.9.8a1.9,1.9,0,0,1-.2.7,7.3,7.3,0,0,1-1.1,1.3L151,66.8l-.5.6-.3.2c-.1,0-.3-.1-.5-.5l-.8-1.1-.7-1a5.9,5.9,0,0,1-.8-1.7c0-.2.1-.3.2-.5l.6-.3c.3,0,.4-.1.4-.3a.3.3,0,0,0-.3-.3h-6.2a.3.3,0,0,0-.3.3c0,.2.1.3.4.4a2.7,2.7,0,0,1,1.6.8,33.7,33.7,0,0,1,2.6,3.3l1.2,1.6.8,1.2a4.8,4.8,0,0,1-.8,1.1l-1.7,2a12.3,12.3,0,0,1-2.2,2.3,4,4,0,0,1-1.6.8.3.3,0,0,0-.3.3c0,.1,0,.2.1.2h5.6c.1,0,.2-.1.2-.3a.3.3,0,0,0-.3-.3c-1.1-.1-1.6-.4-1.6-1s.8-1.7,2.4-3.5l.6-.7.3-.2.2.2.5.7,1.9,2.5a2.8,2.8,0,0,1,.5,1.2c0,.5-.3.7-.8.8s-.4.1-.4.3.1.3.4.3h6.4c.3,0,.4-.1.4-.3s-.1-.3-.4-.4a3,3,0,0,1-1.9-.8,22.7,22.7,0,0,1-2.9-3.7l-1.4-1.9c-.4-.5-.6-.8-.6-1l.5-.7,1.4-1.6a17.9,17.9,0,0,1,3-3.1,3.8,3.8,0,0,1,1.4-.5.3.3,0,1,0,0-.6h-5.2c-.3,0-.5.1-.5.3Zm13.1,1.2a.9.9,0,0,1,.8-.9c.3-.1.4-.2.4-.3a.3.3,0,0,0-.3-.3h-5.3a.3.3,0,0,0-.3.3c0,.2.1.3.4.4a2,2,0,0,1,1.2.8,10.3,10.3,0,0,1,1.1,2.5c.4,1.1.9,2.3,1.5,3.7l2.5,5.6.3.6.2.5.3.3c.2,0,.4-.2.5-.5l.6-1.3c0-.1.4-.8.9-2.1l1.8-3.9,1.6-3.6a9.1,9.1,0,0,1,1.1-2.1,2.1,2.1,0,0,1,1-.6.3.3,0,0,0,.3-.3c0-.2-.1-.3-.2-.3h-4.7c-.2,0-.3.1-.3.2s.1.3.4.3a3.2,3.2,0,0,1,1.3.5,1.4,1.4,0,0,1,.5,1.1,10.1,10.1,0,0,1-1.2,3.7L168.7,73q-.1.3-.3.3c-.1,0-.2-.1-.3-.4l-2.3-5.7a13.1,13.1,0,0,1-1.1-3.7Zm17.9.8a2.9,2.9,0,0,1,.2-1.2c.1-.2.5-.3,1-.4h.3a.4.4,0,0,0,.1-.3.3.3,0,0,0-.3-.3H178a.3.3,0,0,0-.3.3c0,.1,0,.2.2.3l.7.2a2.3,2.3,0,0,1,1.2.5,2.4,2.4,0,0,1,.3,1.4V74a3.9,3.9,0,0,1-.2,1.3,2,2,0,0,1-1,.7l-.3.2h0c0,.2.1.2.3.2h2.5l2.2.2h.8c.5,0,.7-.1.7-.3s-.2-.3-.5-.3a2,2,0,0,1-1.3-.4,2.3,2.3,0,0,1-.6-1.2V64.3Zm10.2-.2c0-.9.4-1.4,1.1-1.5s.4-.1.4-.3-.2-.3-.6-.3h-5.5a.3.3,0,0,0-.3.3c0,.2.1.3.4.3h.6c.9.1,1.4.8,1.4,1.9v8.7a4.2,4.2,0,0,1-.3,1.8,1.3,1.3,0,0,1-.9.7.3.3,0,0,0,0,.6h.6l2.6-.2H197a2.6,2.6,0,0,0,2.1-.9,3.6,3.6,0,0,0,.9-2.4c0-.3-.1-.4-.2-.4s-.3.2-.6.6-2.7,2.1-5,2.1h-1c-.3-.2-.5-.9-.5-2.2V64.1Zm14.4,0c0-.9.4-1.4,1.1-1.5s.4-.1.4-.3-.2-.3-.6-.3h-5.5a.3.3,0,0,0-.3.3c0,.2.1.3.4.3h.6c.9.1,1.4.8,1.4,1.9v8.7a4.2,4.2,0,0,1-.3,1.8,1.3,1.3,0,0,1-.9.7.3.3,0,1,0,0,.6h.6l2.6-.2h4.7a2.6,2.6,0,0,0,2.1-.9,3.6,3.6,0,0,0,.9-2.4c0-.3-.1-.4-.2-.4l-.6.6c-1,1.4-2.7,2.1-5,2.1h-1c-.3-.2-.5-.9-.5-2.2V64.1Zm14.4,0a1.2,1.2,0,0,1,.5-1.1h2a5.5,5.5,0,0,1,2.5.5,1.6,1.6,0,0,1,.8,1.5c0,.3.1.5.2.5s.4-.3.4-.8a7.2,7.2,0,0,0-.1-1.3c0-.4-.1-.7-.1-.9a.3.3,0,0,0-.3-.3H217.3c-.2,0-.3.1-.3.2a.3.3,0,0,0,.3.3,2.7,2.7,0,0,1,1.6.6,2.2,2.2,0,0,1,.4,1.6v8.3a6.6,6.6,0,0,1-.1,1.5,4.6,4.6,0,0,1-.3.9c-.1.2-.4.3-.8.5s-.2.2-.2.3.1.2.3.2h7.4a3,3,0,0,0,1.8-.4,2.8,2.8,0,0,0,1.2-1.2,3.6,3.6,0,0,0,.6-2c0-.1,0-.2-.1-.2h-.3c-.9,1.7-2.7,2.6-5.6,2.6l-.7-.2a.9.9,0,0,1-.4-.6,5.6,5.6,0,0,1-.2-2.1v-.9a7.6,7.6,0,0,1,.1-1.7.8.8,0,0,1,.2-.6l.7-.2h2.2a1.5,1.5,0,0,1,.7.3,2.6,2.6,0,0,1,.6,1.4c0,.3.2.4.3.4h.2v-.7a7.1,7.1,0,0,0-.1-1.4,11.8,11.8,0,0,1-.1-1.6v-1c0-.2-.1-.3-.2-.3l-.3.2-.2.5a1.7,1.7,0,0,1-1.6,1.1h-1.7c-.4,0-.6-.1-.7-.3a3.5,3.5,0,0,1-.1-1.2V64.4l-.3-.3Z"/><polygon class="cls-2" points="76.3 76.3 76.3 0 0 0 0 76.3 76.3 76.3"/><path class="cls-1" d="M66.7,9.6V28.9H59.6c0-3.5-3.5-6.4-7.8-6.4a7.9,7.9,0,0,0-7.1,3.7V50.3a9.1,9.1,0,0,0,8.9,9.3h0v7.1H22.8V59.6h0a9.1,9.1,0,0,0,8.9-9.3V26.2a8.1,8.1,0,0,0-7.1-3.7c-4.3,0-7.8,2.9-7.8,6.4H9.6V9.6Z"/></g></g></svg>