<?xml version="1.0" encoding="utf-8"?>
<!-- Generator: Adobe Illustrator 24.1.2, SVG Export Plug-In . SVG Version: 6.00 Build 0)  -->
<svg version="1.1" id="Layer_1" xmlns="http://www.w3.org/2000/svg" xmlns:xlink="http://www.w3.org/1999/xlink" x="0px" y="0px"
	 viewBox="0 0 20.74 20.74" style="enable-background:new 0 0 20.74 20.74;" xml:space="preserve">
<style type="text/css">
	.st0{fill:#FF8200;}
	.st1{fill:#FFFFFF;}
</style>
<polygon class="st0" points="20.74,20.74 20.74,0 0,0 0,20.74 20.74,20.74 "/>
<path class="st1" d="M18.12,2.62v5.23h-1.94c0-0.96-0.95-1.74-2.13-1.74c-0.86,0-1.6,0.42-1.94,1.02v6.54
	c0,1.39,1.08,2.52,2.42,2.52h0.01v1.94H6.2v-1.94h0.01c1.34,0,2.42-1.13,2.42-2.52V7.12C8.29,6.52,7.55,6.1,6.69,6.1
	c-1.18,0-2.13,0.78-2.13,1.74H2.62V2.62H18.12L18.12,2.62z"/>
</svg>
